<svg xmlns="http://www.w3.org/2000/svg" xmlns:xlink="http://www.w3.org/1999/xlink" viewBox="-2067 9376 260.563 53.431">
  <defs>
    <style>
      .cls-1 {
        fill: #0070b9;
      }

      .cls-2 {
        fill: url(#linear-gradient);
      }

      .cls-3 {
        fill: url(#linear-gradient-2);
      }
    </style>
    <linearGradient id="linear-gradient" x1="0.915" y1="0.805" x2="0.274" y2="0.046" gradientUnits="objectBoundingBox">
      <stop offset="0" stop-color="#b31217"/>
      <stop offset="0.107" stop-color="#b61218"/>
      <stop offset="0.562" stop-color="#ed1c24"/>
      <stop offset="0.652" stop-color="#e91c24"/>
      <stop offset="0.726" stop-color="#e01b22"/>
      <stop offset="0.794" stop-color="#d31920"/>
      <stop offset="0.858" stop-color="#c2151b"/>
      <stop offset="0.919" stop-color="#aa0f14"/>
      <stop offset="0.961" stop-color="#97080c"/>
    </linearGradient>
    <linearGradient id="linear-gradient-2" x1="0.868" y1="-0.285" x2="0.011" y2="1.108" gradientUnits="objectBoundingBox">
      <stop offset="0" stop-color="#97080c"/>
      <stop offset="0.092" stop-color="#af1116"/>
      <stop offset="0.209" stop-color="#c8171d"/>
      <stop offset="0.32" stop-color="#db1a21"/>
      <stop offset="0.422" stop-color="#e61c23"/>
      <stop offset="0.506" stop-color="#ec1d25"/>
      <stop offset="0.609" stop-color="#e81c24"/>
      <stop offset="0.693" stop-color="#df1b22"/>
      <stop offset="0.77" stop-color="#d31920"/>
      <stop offset="0.844" stop-color="#c1151c"/>
      <stop offset="0.913" stop-color="#aa0f14"/>
      <stop offset="0.961" stop-color="#97080c"/>
    </linearGradient>
  </defs>
  <g id="Group_5478" data-name="Group 5478" transform="translate(-2067 9376)">
    <g id="Group_5459" data-name="Group 5459" transform="translate(49.379 1.316)">
      <path id="Path_30294" data-name="Path 30294" class="cls-1" d="M130.016,4.775H129.5a14.879,14.879,0,0,0-3.189.239c-.917.279-1.515,1.714-1.794,2.352-.04.12-.12.12-.2.12l-.359-.12c-.08-.04-.12-.04-.08-.159.2-.718.917-3.349.957-3.588.04-.279.12-.319.2-.319a.427.427,0,0,1,.239.08l.239.2a1.673,1.673,0,0,0,1.156.359c1.076.04,1.914.12,3.827.12h.957c2.193,0,3.07-.08,4.066-.12a2.1,2.1,0,0,0,1.037-.279l.4-.239a.337.337,0,0,1,.239-.08c.12,0,.159.08.2.319s.439,2.751.6,3.668c.04.12-.04.159-.12.159l-.319.08c-.08.04-.12,0-.159-.159-.159-.4-.757-1.953-1.435-2.272a11.583,11.583,0,0,0-3.508-.359h-.558v5.781c0,.279,0,5.98.04,6.3.04.518.2.8.678.8h1.276c.2,0,.2.08.2.2v.439c0,.12-.04.159-.2.159-.2,0-.837-.08-2.831-.08-1.953,0-2.791.08-3.07.08-.159,0-.2-.08-.2-.2v-.4c0-.159.04-.2.159-.2h1.4a.637.637,0,0,0,.678-.478c.08-.6.08-6.817.08-7.216V4.775Z" transform="translate(-123.861 -3.3)"/>
      <path id="Path_30295" data-name="Path 30295" class="cls-1" d="M162.675,8.028c0-1.236-.239-1.475-.957-1.714l-.359-.12c-.12-.04-.159-.08-.159-.12v-.2c0-.08.08-.12.239-.2l2.113-1.116a1.133,1.133,0,0,1,.478-.159c.12,0,.2.159.159.518s-.08,4.465-.08,5.462V11.7h.12a3.919,3.919,0,0,1,2.791-1.316,2.735,2.735,0,0,1,1.993.8c.917.837.877,1.874.877,2.99v1.156c0,1.116.04,2.392.04,2.791,0,.239.319.319.757.319h.359c.159,0,.239.04.239.2v.319c0,.159-.04.239-.159.239-.159,0-.8-.08-1.953-.08-1,0-1.714.08-1.914.08-.159,0-.2-.08-.2-.239v-.359c0-.12.04-.159.159-.159h.478c.359,0,.757-.04.757-.4.04-.279,0-1.355,0-1.993V14.407a3.222,3.222,0,0,0-.678-2.512,1.806,1.806,0,0,0-1.355-.558,2.443,2.443,0,0,0-1.874.837,1.716,1.716,0,0,0-.4,1V17.6c0,.638.08.837.439.837h.6c.159,0,.239.04.239.159v.359c0,.159-.04.239-.159.239-.159,0-1-.08-1.914-.08-1,0-1.794.08-1.953.08a.182.182,0,0,1-.159-.2v-.359c0-.159.08-.159.319-.159H162c.319,0,.638-.08.678-.319.08-.4.08-2.631.08-3.947V8.028Z" transform="translate(-146.314 -3.961)"/>
      <path id="Path_30296" data-name="Path 30296" class="cls-1" d="M190.755,22.709a5,5,0,0,0-.08.957c0,1.993,1.276,3.508,2.87,3.508a2.791,2.791,0,0,0,2.472-1.4.219.219,0,0,1,.2-.12l.279.159c.08.04.12.08,0,.319a3.68,3.68,0,0,1-3.229,2.193,3.774,3.774,0,0,1-3.189-1.435,4.776,4.776,0,0,1-.877-3.189,4.558,4.558,0,0,1,1.276-3.229,3.816,3.816,0,0,1,2.91-1.076,3.052,3.052,0,0,1,2.99,2.99c0,.279-.239.319-.558.319Zm3.229-.638c.4,0,.558-.12.558-.279,0-.478-.239-1.794-1.555-1.794-.877,0-1.754.6-2.113,2.073Z" transform="translate(-163.152 -12.981)"/>
      <path id="Path_30297" data-name="Path 30297" class="cls-1" d="M226.353,17.576a8.116,8.116,0,0,1-2.153-5.661,7.709,7.709,0,0,1,2.073-5.382A7.154,7.154,0,0,1,231.336,4.5a8.468,8.468,0,0,1,4.106,1.116c.279.159.359.159.4,0l.159-.6c.04-.12.08-.12.279-.12s.239.04.239.319c0,.4.4,3.349.518,3.947.04.12,0,.2-.08.2l-.319.08c-.12.04-.159,0-.2-.159a7.377,7.377,0,0,0-1.595-2.512A4.642,4.642,0,0,0,231.3,5.218c-3.628,0-5.1,3.229-5.063,6.179a8.069,8.069,0,0,0,1.953,5.223,4.523,4.523,0,0,0,3.907,1.714,6.31,6.31,0,0,0,5.023-2.591c.08-.12.12-.12.159-.08l.279.2c.08.04.12.08.04.2a7.505,7.505,0,0,1-11.242,1.515Z" transform="translate(-184.198 -4.022)"/>
      <path id="Path_30298" data-name="Path 30298" class="cls-1" d="M267.72,25.539c0,1.156.239,1.515.6,1.515a.939.939,0,0,0,.718-.319c.08-.12.12-.159.2-.08l.2.159c.08.08.12.159-.04.359a1.671,1.671,0,0,1-1.595,1,1.492,1.492,0,0,1-1.435-1.355h-.04a4.39,4.39,0,0,1-1.993,1.236,3.938,3.938,0,0,1-1.2.12c-.478,0-1.236-.4-1.236-1.674,0-.917.439-1.754,2.033-2.472a10.322,10.322,0,0,0,2.272-1.2V21.512a2.431,2.431,0,0,0-.279-1.116,1.542,1.542,0,0,0-1.236-.439,2.175,2.175,0,0,0-1.316.439c-.279.279-.12.558-.12.917,0,.718-.239,1.156-1.076,1.156-.319,0-.478-.2-.478-.638a2.543,2.543,0,0,1,1.4-1.914,4.343,4.343,0,0,1,2.472-.718,2.042,2.042,0,0,1,1.635.558,1.737,1.737,0,0,1,.439,1.435v4.345ZM266.2,23.506c-.718.558-2.711.957-2.711,2.631a.987.987,0,0,0,1.037,1.116c.6,0,1.674-.718,1.674-1.276Z" transform="translate(-206.748 -12.861)"/>
      <path id="Path_30299" data-name="Path 30299" class="cls-1" d="M290.057,22.848c0-1.515-.279-1.874-.6-2.193a2.231,2.231,0,0,0-1.316-.359,2.383,2.383,0,0,0-1.953,1.2,2.438,2.438,0,0,0-.279,1.355v4.027c0,.319.12.518.4.518h.718c.2,0,.2.04.2.2v.319c0,.159-.04.239-.159.239-.2,0-.718-.08-1.834-.08-1.076,0-1.714.08-1.874.08-.12,0-.159-.04-.159-.2v-.4c0-.159.04-.2.239-.2h.678c.2,0,.279-.12.319-.518a9.365,9.365,0,0,0,.04-1.037V22.17a1.051,1.051,0,0,0-.558-1.037l-.439-.239c-.12-.08-.159-.12-.159-.159v-.159a.178.178,0,0,1,.12-.159l1.794-.917a1.056,1.056,0,0,1,.4-.12c.12,0,.2.159.2.279l.08,1.2h.08a3.9,3.9,0,0,1,2.99-1.555,2.413,2.413,0,0,1,2.272,1.555h.12a3.961,3.961,0,0,1,2.99-1.555,2.442,2.442,0,0,1,1.834.6,2.859,2.859,0,0,1,.957,2.512v4.5c0,.319.2.4.439.4h.558c.2,0,.239.04.239.2v.359c0,.159-.04.2-.159.2-.159,0-.718-.08-1.674-.08-1,0-1.754.08-1.874.08s-.159-.08-.159-.2v-.319c0-.159.04-.2.279-.2h.518a.358.358,0,0,0,.4-.4c.04-.478.04-1.2.04-1.635V22.33a1.906,1.906,0,0,0-.6-1.635,2.445,2.445,0,0,0-1.515-.439,2.339,2.339,0,0,0-1.754,1.037,3.937,3.937,0,0,0-.279,2.033v3.508c0,.279.12.478.4.478h.678c.2,0,.239.04.239.2v.319c0,.159-.04.239-.159.239-.159,0-.678-.08-1.794-.08-1.076,0-1.794.08-1.914.08s-.159-.08-.159-.2v-.319c0-.159.04-.2.2-.2h.6c.319,0,.439-.08.439-.359V22.848Z" transform="translate(-219.677 -12.921)"/>
      <path id="Path_30300" data-name="Path 30300" class="cls-1" d="M324.515,22.29c0-.478-.159-.757-.718-1.076l-.478-.279c-.159-.08-.159-.12-.159-.2v-.159c0-.08.04-.12.159-.159l1.953-.957a1.133,1.133,0,0,1,.478-.159c.12,0,.159.12.159.4l.08.957h.08a3.721,3.721,0,0,1,2.95-1.355,3.2,3.2,0,0,1,2.312,1,3.926,3.926,0,0,1,1.076,3.149,4.5,4.5,0,0,1-4.385,4.784,5.482,5.482,0,0,1-2.033-.359v4.266c0,.558.159.678.439.678h.877c.159,0,.2.08.2.2v.359c0,.12-.04.2-.2.2-.12,0-.8-.08-2.073-.08-1.156,0-1.874.08-2.033.08s-.2-.08-.2-.2v-.359c0-.12.04-.2.239-.2h.8c.359,0,.4-.2.439-.518a32.7,32.7,0,0,0,.08-3.548V22.29ZM325.99,26a1.129,1.129,0,0,0,.439,1.076,3.309,3.309,0,0,0,2.033.558c1.156,0,2.352-.877,2.352-3.389,0-2.831-1.276-3.987-2.631-3.987a2.52,2.52,0,0,0-2.153,1.316V26Z" transform="translate(-243.61 -12.921)"/>
      <path id="Path_30301" data-name="Path 30301" class="cls-1" d="M349.935,8.147c0-1.355-.239-1.635-.957-1.874l-.2-.08c-.239-.08-.279-.12-.279-.159V5.875c0-.08.04-.12.159-.159.6-.279,1.635-.8,2.153-1.116a.84.84,0,0,1,.439-.2c.159,0,.2.12.159.359-.04.159-.04,2.472-.04,4.266v2.352a4.189,4.189,0,0,1,2.791-1c1.794,0,3.708,1.435,3.708,4.345a4.523,4.523,0,0,1-4.226,4.585,4.831,4.831,0,0,1-2.392-.518l-.8.439a.336.336,0,0,1-.279.08l-.239-.08c-.08-.04-.12-.08-.08-.159.04-.279.04-1.953.04-3.429V8.147Zm1.435,6.538a8.075,8.075,0,0,0,.319,2.95,2.211,2.211,0,0,0,1.914,1c1.236,0,2.711-.837,2.711-3.508,0-1.953-1.037-3.827-3.03-3.827a2.755,2.755,0,0,0-1.914.718v2.671Z" transform="translate(-258.944 -3.961)"/>
      <path id="Path_30302" data-name="Path 30302" class="cls-1" d="M377.455,22.709a5,5,0,0,0-.08.957c0,1.993,1.276,3.508,2.87,3.508a2.791,2.791,0,0,0,2.472-1.4.219.219,0,0,1,.2-.12l.279.159c.08.04.12.08,0,.319a3.68,3.68,0,0,1-3.229,2.193,3.774,3.774,0,0,1-3.189-1.435,4.776,4.776,0,0,1-.877-3.189,4.557,4.557,0,0,1,1.276-3.229,3.816,3.816,0,0,1,2.91-1.076,3.02,3.02,0,0,1,2.99,2.99c0,.279-.239.319-.558.319Zm3.229-.638c.4,0,.558-.12.558-.279,0-.478-.239-1.794-1.555-1.794-.877,0-1.754.6-2.113,2.073Z" transform="translate(-275.421 -12.981)"/>
      <path id="Path_30303" data-name="Path 30303" class="cls-1" d="M399.41,12.951c0,1.037,0,4.106.04,4.744.04.359.12.638.518.638h.917c.2,0,.239.08.239.2v.359c0,.12-.04.2-.12.2-.159,0-1.037-.08-2.272-.08-1.316,0-2.113.08-2.272.08-.12,0-.159-.08-.159-.2v-.359c0-.159.04-.2.279-.2h.957c.239,0,.439-.159.439-.518.04-.638.04-4.106.04-5.3V11.237c0-1.435-.04-3.269-.08-3.827a1.273,1.273,0,0,0-1-1.236l-.4-.159c-.12-.04-.12-.08-.12-.12v-.08c0-.08.08-.12.2-.159a14.868,14.868,0,0,0,2.392-1.2.84.84,0,0,1,.439-.159c.159,0,.2.12.159.359-.04,1.116-.08,5.342-.08,6.458v1.834Z" transform="translate(-287.688 -3.901)"/>
      <path id="Path_30304" data-name="Path 30304" class="cls-1" d="M412.349,12.951c0,1.037,0,4.106.04,4.744.04.359.12.638.518.638h.917c.2,0,.239.08.239.2v.359c0,.12-.04.2-.12.2-.159,0-1.037-.08-2.312-.08-1.316,0-2.113.08-2.272.08-.12,0-.159-.08-.159-.2v-.359c0-.159.04-.2.279-.2h.957c.239,0,.439-.159.439-.518.04-.638.04-4.106.04-5.3V11.237c0-1.435-.04-3.269-.08-3.827a1.273,1.273,0,0,0-1-1.236l-.4-.159c-.12-.04-.12-.08-.12-.12v-.08c0-.08.08-.12.2-.159a14.869,14.869,0,0,0,2.392-1.2.84.84,0,0,1,.439-.159c.159,0,.2.12.159.359-.04,1.116-.08,5.342-.08,6.458v1.834Z" transform="translate(-295.445 -3.901)"/>
    </g>
    <g id="Group_5460" data-name="Group 5460" transform="translate(173.978 1.993)">
      <path id="Path_30305" data-name="Path 30305" class="cls-1" d="M438.633,10.382c0-.877-.04-3.747-.04-3.987q0-.6-.837-.6h-1.2c-.08,0-.159-.04-.159-.12V5.12c0-.08.08-.12.159-.12.12,0,.359.04.837.04.478.04,1.156.04,2.113.04.359,0,7.455.04,7.774-.08.08.359.678,3.07.8,3.628.04.08,0,.12-.04.159l-.359.159c-.08.04-.12-.04-.159-.159-.2-.319-.718-1.076-1.316-1.874a2.566,2.566,0,0,0-1.435-.957c-.518-.12-3.747-.2-4.345-.2,0,.279-.04,4.345-.04,5.581v1c.279,0,2.432-.08,2.671-.12a1.008,1.008,0,0,0,.877-.877,4.847,4.847,0,0,0,.2-1c.04-.08.08-.159.159-.159l.4.04c.08,0,.12.08.12.159-.04.359-.04,2.033-.04,2.312,0,.718.08,1.714.12,2.113,0,.12-.04.159-.159.159l-.4.08c-.12.04-.12-.04-.159-.159-.04-.159-.159-.757-.239-1a1.014,1.014,0,0,0-.837-.8,26.709,26.709,0,0,0-2.751-.12v.757c0,.6.04,4.027.04,4.306,0,.558.12.638.8.638h1c.12,0,.2.04.2.12v.518c0,.12-.04.159-.159.159-.2,0-1-.08-2.751-.08-1.595,0-2.352.08-2.671.08-.08,0-.12-.04-.12-.159v-.558c0-.08.08-.12.159-.12h.917c.518,0,.678-.08.718-.439.04-.4.08-2.95.08-6.458V10.382Z" transform="translate(-436.4 -5)"/>
      <path id="Path_30306" data-name="Path 30306" class="cls-1" d="M471.88,25.539c0,1.156.239,1.515.6,1.515a.939.939,0,0,0,.718-.319c.08-.12.12-.159.2-.08l.2.159c.08.08.12.159-.04.359a1.671,1.671,0,0,1-1.595,1,1.492,1.492,0,0,1-1.435-1.355h-.04a4.39,4.39,0,0,1-1.993,1.236,3.938,3.938,0,0,1-1.2.12c-.478,0-1.236-.4-1.236-1.674,0-.917.439-1.754,2.033-2.472a11.921,11.921,0,0,0,2.312-1.2V21.512a2.431,2.431,0,0,0-.279-1.116,1.542,1.542,0,0,0-1.236-.439,2.175,2.175,0,0,0-1.316.439c-.279.279-.12.558-.12.917,0,.718-.239,1.156-1.076,1.156-.319,0-.478-.2-.478-.638a2.543,2.543,0,0,1,1.4-1.914,4.343,4.343,0,0,1,2.472-.718,2.042,2.042,0,0,1,1.635.558,1.737,1.737,0,0,1,.439,1.435v4.345ZM470.4,23.506c-.718.558-2.711.957-2.711,2.631a.987.987,0,0,0,1.036,1.116c.6,0,1.674-.718,1.674-1.276Z" transform="translate(-454.139 -13.539)"/>
    </g>
    <g id="Group_5461" data-name="Group 5461" transform="translate(194.27 1.714)">
      <path id="Path_30307" data-name="Path 30307" class="cls-1" d="M494.157,22.848c0-1.515-.279-1.874-.6-2.193a2.231,2.231,0,0,0-1.316-.359,2.383,2.383,0,0,0-1.953,1.2,2.438,2.438,0,0,0-.279,1.355v4.027c0,.319.12.518.4.518h.718c.2,0,.2.04.2.2v.319c0,.159-.04.239-.159.239-.2,0-.718-.08-1.834-.08-1.076,0-1.714.08-1.874.08-.12,0-.159-.04-.159-.2v-.4c0-.159.04-.2.239-.2h.678c.2,0,.279-.12.319-.518a9.357,9.357,0,0,0,.04-1.037V22.17a1.051,1.051,0,0,0-.558-1.037l-.439-.239c-.12-.08-.159-.12-.159-.159v-.159a.178.178,0,0,1,.12-.159l1.794-.917a1.056,1.056,0,0,1,.4-.12c.12,0,.2.159.2.279l.08,1.2h.08a3.9,3.9,0,0,1,2.99-1.555,2.413,2.413,0,0,1,2.272,1.555h.12a3.961,3.961,0,0,1,2.99-1.555,2.442,2.442,0,0,1,1.834.6,2.859,2.859,0,0,1,.957,2.512v4.5c0,.319.2.4.439.4h.558c.2,0,.239.04.239.2v.359c0,.159-.04.2-.159.2-.159,0-.718-.08-1.674-.08-1,0-1.754.08-1.874.08s-.159-.08-.159-.2v-.319c0-.159.04-.2.279-.2h.518a.358.358,0,0,0,.4-.4c.04-.478.04-1.2.04-1.635V22.33a1.906,1.906,0,0,0-.6-1.635,2.445,2.445,0,0,0-1.515-.439,2.339,2.339,0,0,0-1.754,1.037,3.937,3.937,0,0,0-.279,2.033v3.508c0,.279.12.478.4.478h.678c.2,0,.239.04.239.2v.319c0,.159-.04.239-.159.239-.159,0-.678-.08-1.794-.08-1.076,0-1.794.08-1.914.08s-.159-.08-.159-.2v-.319c0-.159.04-.2.2-.2h.6c.319,0,.439-.08.439-.359V22.848Z" transform="translate(-487.3 -13.32)"/>
      <path id="Path_30308" data-name="Path 30308" class="cls-1" d="M529.415,14.253c0-.678-.12-1.037-1.116-1.236-.159-.04-.2-.08-.2-.159v-.2c0-.08.04-.12.159-.159a14.626,14.626,0,0,0,2.193-1,.891.891,0,0,1,.4-.12c.12,0,.12.12.12.239-.04.359-.04,1.635-.04,3.309v2.193c0,.8,0,1.515.04,1.754.04.4.12.518.319.518h.917c.159,0,.2.08.2.2v.359c0,.159-.04.2-.2.2s-1.076-.08-1.953-.08c-1.2,0-1.953.08-2.193.08-.12,0-.159-.04-.159-.159v-.4c0-.12.08-.159.2-.159h1c.239,0,.319-.08.319-.4.04-.6.04-1.236.04-1.834v-2.95ZM528.5,7.237A1.113,1.113,0,0,1,529.734,6.2a.993.993,0,0,1,1.037,1,1.108,1.108,0,0,1-1.2,1.116A1.122,1.122,0,0,1,528.5,7.237Z" transform="translate(-511.714 -5.443)"/>
      <path id="Path_30309" data-name="Path 30309" class="cls-1" d="M543.749,12.951c0,1.037,0,4.106.04,4.744.04.359.12.638.518.638h.917c.2,0,.239.08.239.2v.359c0,.12-.04.2-.12.2-.159,0-1.037-.08-2.312-.08-1.316,0-2.113.08-2.272.08-.12,0-.159-.08-.159-.2v-.359c0-.159.04-.2.279-.2h.957c.239,0,.438-.159.438-.518.04-.638.04-4.106.04-5.3V11.237c0-1.435-.04-3.269-.08-3.827a1.273,1.273,0,0,0-1-1.236l-.4-.159c-.12-.04-.12-.08-.12-.12v-.08c0-.08.08-.12.2-.159a14.869,14.869,0,0,0,2.392-1.2.84.84,0,0,1,.439-.159c.159,0,.2.12.159.359-.04,1.116-.08,5.342-.08,6.458v1.834Z" transform="translate(-519.351 -4.3)"/>
    </g>
    <g id="Group_5462" data-name="Group 5462" transform="translate(220.502 7.894)">
      <path id="Path_30310" data-name="Path 30310" class="cls-1" d="M553.259,32.8a.883.883,0,0,1,.917-.8,2.951,2.951,0,0,1,.917.239.45.45,0,0,0,.439-.12,21.9,21.9,0,0,0,1.635-3.468c-.12-.518-2.233-6.817-2.432-7.256-.239-.518-.439-.837-.957-.837h-.518c-.159,0-.159-.08-.159-.2v-.4a.146.146,0,0,1,.159-.159c.2,0,.678.08,1.874.08,1.037,0,1.674-.08,1.874-.08.159,0,.2.08.2.159V20.4c0,.12-.04.159-.12.159h-.4c-.239,0-.319.159-.279.439.08.439,1.435,4.9,1.674,5.342h.08c.2-.319,1.953-4.5,2.073-5.023s-.04-.757-.359-.757h-.319a.146.146,0,0,1-.159-.159V20c0-.12.04-.159.12-.159.279,0,.678.08,1.674.08.558,0,1-.08,1.236-.08.12,0,.12.08.12.159v.4c0,.12,0,.2-.12.2h-.319a.965.965,0,0,0-.718.359,70.213,70.213,0,0,0-3.189,6.817c-1,2.233-1.794,4.146-2.153,4.824a1.887,1.887,0,0,1-1.714,1.316A1.079,1.079,0,0,1,553.259,32.8Z" transform="translate(-553.1 -19.8)"/>
    </g>
    <g id="Group_5463" data-name="Group 5463" transform="translate(50.511 22.445)">
      <path id="Path_30311" data-name="Path 30311" class="cls-1" d="M128.853,69.476a8.116,8.116,0,0,1-2.153-5.661,7.709,7.709,0,0,1,2.073-5.382,7.154,7.154,0,0,1,5.063-2.033,8.467,8.467,0,0,1,4.106,1.116c.279.159.359.159.4,0l.159-.6c.04-.12.08-.12.279-.12s.239.04.239.319c0,.4.4,3.349.518,3.947.04.12,0,.2-.08.2l-.319.08c-.12.04-.159,0-.2-.159a7.377,7.377,0,0,0-1.595-2.512,4.642,4.642,0,0,0-3.548-1.555c-3.628,0-5.1,3.229-5.063,6.179a8.068,8.068,0,0,0,1.953,5.223,4.523,4.523,0,0,0,3.907,1.714,6.311,6.311,0,0,0,5.023-2.591c.08-.12.12-.12.159-.08l.279.2c.08.04.12.08.04.2a7.313,7.313,0,0,1-6.06,3.389A7.158,7.158,0,0,1,128.853,69.476Z" transform="translate(-126.7 -56.36)"/>
      <path id="Path_30312" data-name="Path 30312" class="cls-1" d="M170.22,77.539c0,1.156.239,1.515.6,1.515a.939.939,0,0,0,.718-.319c.08-.12.12-.159.2-.08l.2.159c.08.08.12.159-.04.359a1.671,1.671,0,0,1-1.595,1,1.492,1.492,0,0,1-1.435-1.355h-.04a4.39,4.39,0,0,1-1.993,1.236,3.938,3.938,0,0,1-1.2.12c-.478,0-1.236-.4-1.236-1.674,0-.917.439-1.754,2.033-2.472a10.321,10.321,0,0,0,2.272-1.2V73.512a2.43,2.43,0,0,0-.279-1.116,1.542,1.542,0,0,0-1.236-.439,2.175,2.175,0,0,0-1.316.439c-.279.279-.12.558-.12.917,0,.718-.239,1.156-1.076,1.156-.319,0-.478-.2-.478-.638a2.543,2.543,0,0,1,1.4-1.914,4.343,4.343,0,0,1,2.472-.718,2.042,2.042,0,0,1,1.635.558,1.737,1.737,0,0,1,.439,1.435v4.345Zm-1.475-2.073c-.718.558-2.711.957-2.711,2.631a.987.987,0,0,0,1.037,1.116c.6,0,1.674-.718,1.674-1.276Z" transform="translate(-149.25 -65.26)"/>
      <path id="Path_30313" data-name="Path 30313" class="cls-1" d="M194.192,78.854a.4.4,0,0,0,.439.439h.638c.2,0,.239.08.239.2v.319c0,.159-.04.239-.159.239-.159,0-.757-.08-1.914-.08-1.037,0-1.674.08-1.834.08-.12,0-.159-.08-.159-.239v-.319c0-.159.08-.2.279-.2h.6c.239,0,.4-.12.4-.478.04-.518.04-1.2.04-1.714V74.429c0-.8,0-1.4-.6-1.834a2.212,2.212,0,0,0-1.475-.359,2.421,2.421,0,0,0-1.635.8,2.046,2.046,0,0,0-.478,1.4v4.186c0,.558.08.678.478.678h.518c.159,0,.2.08.2.2v.359c0,.12-.04.2-.159.2-.159,0-.678-.08-1.754-.08-1.037,0-1.674.08-1.794.08s-.159-.08-.159-.2v-.359c0-.12.04-.2.2-.2h.6c.279,0,.4-.08.4-.4V74.11a1.245,1.245,0,0,0-.837-1.2l-.159-.08c-.159-.08-.159-.12-.159-.2v-.12c0-.12.08-.159.2-.2l1.754-.957a1.226,1.226,0,0,1,.359-.159c.12,0,.159.08.159.239l.159,1.236h.04A4.114,4.114,0,0,1,191.4,71.2a3.145,3.145,0,0,1,1.714.439,3.026,3.026,0,0,1,1.116,1.914v5.3Z" transform="translate(-162.299 -65.26)"/>
      <path id="Path_30314" data-name="Path 30314" class="cls-1" d="M214.315,75.027a5.661,5.661,0,0,0,1.037,3.07,2.592,2.592,0,0,0,2.193,1.037,2.832,2.832,0,0,0,2.233-.877c.04-.04.12-.08.159,0l.2.2a.167.167,0,0,1,0,.279,4.653,4.653,0,0,1-3.269,1.435,3.7,3.7,0,0,1-3.149-1.435,4.147,4.147,0,0,1-.917-2.751,4.555,4.555,0,0,1,4.345-4.784c2.113,0,2.751,1.236,2.751,1.635a.7.7,0,0,1-.757.718c-.478,0-.8-.279-1.116-.8a1.3,1.3,0,0,0-1.355-.877C215.551,71.878,214.315,72.954,214.315,75.027Z" transform="translate(-178.475 -65.26)"/>
      <path id="Path_30315" data-name="Path 30315" class="cls-1" d="M235.355,74.609a4.992,4.992,0,0,0-.08.957c0,1.993,1.276,3.508,2.87,3.508a2.791,2.791,0,0,0,2.472-1.4.219.219,0,0,1,.2-.12l.279.159c.08.04.12.08,0,.319a3.68,3.68,0,0,1-3.229,2.193,3.774,3.774,0,0,1-3.189-1.435,4.776,4.776,0,0,1-.877-3.189,4.558,4.558,0,0,1,1.276-3.229,3.816,3.816,0,0,1,2.91-1.076,3.052,3.052,0,0,1,2.99,2.99c0,.279-.239.319-.558.319Zm3.229-.6c.4,0,.558-.12.558-.279,0-.478-.239-1.794-1.555-1.794-.877,0-1.754.6-2.113,2.073Z" transform="translate(-191.103 -65.32)"/>
      <path id="Path_30316" data-name="Path 30316" class="cls-1" d="M256.275,74.368c0-1.037-.159-1.236-.718-1.555l-.4-.2c-.12-.04-.159-.08-.159-.159v-.12c0-.08.04-.12.159-.2l1.993-1.037a.43.43,0,0,1,.279-.08c.12,0,.159.12.159.239l.12,1.4h.08a3.457,3.457,0,0,1,2.432-1.754.931.931,0,0,1,1.037.877.969.969,0,0,1-.837,1,1.321,1.321,0,0,1-.6-.159,1.141,1.141,0,0,0-.678-.159,1.464,1.464,0,0,0-1.2.837,2.559,2.559,0,0,0-.2.638V78.2c0,.638.159.837.558.837h.957c.12,0,.159.08.159.2v.359c0,.12-.04.2-.12.2-.12,0-1.037-.08-2.153-.08-1.276,0-2.113.08-2.233.08-.08,0-.12-.04-.12-.2v-.359c0-.159.04-.2.239-.2h.8c.319,0,.439-.12.439-.4.04-.678.04-1.4.04-2.432V74.368Z" transform="translate(-203.731 -65.079)"/>
      <path id="Path_30317" data-name="Path 30317" class="cls-1" d="M288.134,62.123c0-1.515,0-2.791-.04-3.389-.04-.678-.279-1-.757-1h-.8c-.12,0-.12-.08-.12-.159v-.518c0-.12.04-.159.12-.159.2,0,.8.08,2.512.08,1.116,0,3.03-.08,3.389-.08a5.578,5.578,0,0,1,3.787,1.236,3.325,3.325,0,0,1,1.037,2.312c0,2.551-1.156,3.508-3.747,4.066v.04a2.305,2.305,0,0,1,.917.757c.239.279,1.674,2.352,1.834,2.591a19.47,19.47,0,0,0,1.794,2.352,2.272,2.272,0,0,0,1.475.359c.159,0,.159.08.159.159v.439c0,.12-.04.2-.159.2-.159,0-.678-.08-1.595-.08a15.8,15.8,0,0,0-1.635.08,6.12,6.12,0,0,1-.837-1.156c-.159-.239-1.276-2.153-1.355-2.352a18.433,18.433,0,0,0-1.316-1.874,2.5,2.5,0,0,0-2.193-1.2,2.214,2.214,0,0,0-.678.08v1.116c0,1.2.04,3.468.04,3.787.04.439.2.8.518.8h1.276c.159,0,.159.08.159.159v.439c0,.159-.04.2-.239.2-.239,0-.718-.08-2.671-.08-1.834,0-2.312.08-2.551.08-.159,0-.159-.08-.159-.159v-.478c0-.12,0-.159.12-.159h.837c.439,0,.8-.159.8-.678.04-1.993.04-3.907.04-5.86V62.123Zm1.834,1.993a3.276,3.276,0,0,0,.917.08c3.708,0,4.385-2.551,4.385-3.389a3.2,3.2,0,0,0-1-2.312,4.809,4.809,0,0,0-3.349-.917,1.222,1.222,0,0,0-.678.159.734.734,0,0,0-.239.638v5.741Z" transform="translate(-222.673 -56.661)"/>
      <path id="Path_30318" data-name="Path 30318" class="cls-1" d="M322.815,74.609a5.674,5.674,0,0,0-.04.957c0,1.993,1.276,3.508,2.87,3.508a2.791,2.791,0,0,0,2.472-1.4.219.219,0,0,1,.2-.12l.279.159c.08.04.12.08,0,.319a3.68,3.68,0,0,1-3.229,2.193,3.774,3.774,0,0,1-3.189-1.435,4.776,4.776,0,0,1-.877-3.189,4.558,4.558,0,0,1,1.276-3.229,3.816,3.816,0,0,1,2.91-1.076,3.052,3.052,0,0,1,2.99,2.99c0,.279-.239.319-.558.319Zm3.229-.6c.4,0,.558-.12.558-.279,0-.478-.239-1.794-1.555-1.794-.877,0-1.754.6-2.113,2.073Z" transform="translate(-243.72 -65.32)"/>
      <path id="Path_30319" data-name="Path 30319" class="cls-1" d="M343.562,79.672a.3.3,0,0,1-.12-.279l-.359-1.914c-.04-.12.04-.159.12-.159l.279-.08c.08-.04.159.04.2.12l.518,1c.4.757.678,1.276,1.754,1.276a1.478,1.478,0,0,0,1.595-1.4c0-.917-.439-1.435-1.953-1.874-1.2-.359-2.392-.957-2.392-2.591a2.68,2.68,0,0,1,2.831-2.472,3.641,3.641,0,0,1,1.874.439c.319.159.359.239.359.359l.319,1.435a.2.2,0,0,1-.159.2l-.239.08c-.08.04-.12,0-.2-.12l-.678-.917a1.544,1.544,0,0,0-1.435-.8,1.441,1.441,0,0,0-1.555,1.355c0,1.2.957,1.4,1.953,1.674,1.475.439,2.432,1.037,2.432,2.591a2.8,2.8,0,0,1-3.07,2.671A4.391,4.391,0,0,1,343.562,79.672Z" transform="translate(-256.813 -65.32)"/>
      <path id="Path_30320" data-name="Path 30320" class="cls-1" d="M362.555,74.609a5,5,0,0,0-.08.957c0,1.993,1.276,3.508,2.87,3.508a2.792,2.792,0,0,0,2.472-1.4.219.219,0,0,1,.2-.12l.279.159c.08.04.12.08,0,.319a3.68,3.68,0,0,1-3.229,2.193,3.774,3.774,0,0,1-3.189-1.435A4.776,4.776,0,0,1,361,75.606a4.558,4.558,0,0,1,1.276-3.229,3.816,3.816,0,0,1,2.91-1.076,3.02,3.02,0,0,1,2.99,2.99c0,.279-.239.319-.558.319Zm3.229-.6c.4,0,.558-.12.558-.279,0-.478-.239-1.794-1.555-1.794-.877,0-1.754.6-2.113,2.073Z" transform="translate(-267.593 -65.32)"/>
      <path id="Path_30321" data-name="Path 30321" class="cls-1" d="M388.72,77.539c0,1.156.239,1.515.6,1.515a.939.939,0,0,0,.718-.319c.08-.12.12-.159.2-.08l.2.159c.08.08.12.159-.04.359a1.671,1.671,0,0,1-1.595,1,1.492,1.492,0,0,1-1.435-1.355h-.04a4.39,4.39,0,0,1-1.993,1.236,3.938,3.938,0,0,1-1.2.12c-.478,0-1.236-.4-1.236-1.674,0-.917.439-1.754,2.033-2.472a10.323,10.323,0,0,0,2.272-1.2V73.512a2.431,2.431,0,0,0-.279-1.116,1.542,1.542,0,0,0-1.236-.439,2.175,2.175,0,0,0-1.316.439c-.279.279-.12.558-.12.917,0,.718-.239,1.156-1.076,1.156-.319,0-.478-.2-.478-.638a2.543,2.543,0,0,1,1.4-1.914,4.343,4.343,0,0,1,2.472-.718,2.042,2.042,0,0,1,1.635.558,1.737,1.737,0,0,1,.439,1.435v4.345Zm-1.475-2.073c-.718.558-2.711.957-2.711,2.631a.987.987,0,0,0,1.037,1.116c.6,0,1.674-.718,1.674-1.276Z" transform="translate(-280.642 -65.26)"/>
      <path id="Path_30322" data-name="Path 30322" class="cls-1" d="M405.175,74.368c0-1.037-.159-1.236-.718-1.555l-.4-.2c-.12-.04-.159-.08-.159-.159v-.12c0-.08.04-.12.159-.2l1.993-1.037a.43.43,0,0,1,.279-.08c.12,0,.159.12.159.239l.12,1.4h.08a3.457,3.457,0,0,1,2.432-1.754.931.931,0,0,1,1.036.877.969.969,0,0,1-.837,1,1.321,1.321,0,0,1-.6-.159,1.141,1.141,0,0,0-.678-.159,1.463,1.463,0,0,0-1.2.837,2.557,2.557,0,0,0-.2.638V78.2c0,.638.159.837.558.837h.957c.12,0,.159.08.159.2v.359c0,.12-.04.2-.12.2-.12,0-1.037-.08-2.153-.08-1.276,0-2.113.08-2.233.08-.08,0-.12-.04-.12-.2v-.359c0-.159.04-.2.239-.2h.8c.319,0,.439-.12.439-.4.04-.678.04-1.4.04-2.432V74.368Z" transform="translate(-293.27 -65.079)"/>
      <path id="Path_30323" data-name="Path 30323" class="cls-1" d="M423.115,75.027a5.661,5.661,0,0,0,1.037,3.07,2.592,2.592,0,0,0,2.193,1.037,2.832,2.832,0,0,0,2.233-.877c.04-.04.12-.08.159,0l.2.2a.167.167,0,0,1,0,.279,4.653,4.653,0,0,1-3.269,1.435,3.7,3.7,0,0,1-3.149-1.435,4.147,4.147,0,0,1-.917-2.751,4.555,4.555,0,0,1,4.345-4.784c2.113,0,2.751,1.236,2.751,1.635a.7.7,0,0,1-.757.718c-.478,0-.8-.279-1.116-.8a1.3,1.3,0,0,0-1.355-.877C424.351,71.878,423.115,72.954,423.115,75.027Z" transform="translate(-304.034 -65.26)"/>
      <path id="Path_30324" data-name="Path 30324" class="cls-1" d="M443.475,59.928c0-1.236-.239-1.475-.957-1.714l-.359-.12c-.12-.04-.159-.08-.159-.12v-.2c0-.08.08-.12.239-.2l2.113-1.116a1.133,1.133,0,0,1,.478-.159c.12,0,.2.159.159.518s-.08,4.465-.08,5.462V63.6h.12a3.919,3.919,0,0,1,2.791-1.316,2.735,2.735,0,0,1,1.993.8c.917.837.877,1.874.877,2.99v1.156c0,1.116.04,2.392.04,2.791,0,.239.319.319.757.319h.359c.159,0,.239.04.239.2v.319c0,.159-.04.239-.159.239-.159,0-.8-.08-1.953-.08-1,0-1.714.08-1.914.08-.159,0-.2-.08-.2-.239v-.359c0-.12.04-.159.159-.159h.478c.359,0,.757-.04.757-.4.04-.279,0-1.355,0-1.993V66.307a3.222,3.222,0,0,0-.678-2.512,1.806,1.806,0,0,0-1.355-.558,2.443,2.443,0,0,0-1.874.837,1.716,1.716,0,0,0-.4,1V69.5c0,.638.08.837.439.837h.6c.159,0,.239.04.239.159v.359c0,.159-.04.239-.159.239-.159,0-1-.08-1.914-.08-1,0-1.794.08-1.953.08a.182.182,0,0,1-.159-.2v-.359c0-.159.08-.159.319-.159h.439c.319,0,.638-.08.678-.319.08-.4.08-2.631.08-3.947V59.928Z" transform="translate(-316.301 -56.3)"/>
      <path id="Path_30325" data-name="Path 30325" class="cls-1" d="M484.592,62.9c0-.478-.08-4.146-.08-4.425-.04-.478-.239-.678-1-.678h-1.156c-.12,0-.159-.04-.159-.12V57.12c0-.08.08-.12.159-.12.239,0,1.276.08,3.149.08,1.794,0,2.472-.08,2.751-.08a.146.146,0,0,1,.159.159v.518a.146.146,0,0,1-.159.159H487.3c-.4,0-.718.159-.718.558,0,.2-.08,4.7-.08,4.943v1.555c0,.2.08,4.9.08,5.1,0,.638.319.718.957.718h.837c.12,0,.159.04.159.159v.478c0,.08-.08.12-.2.12-.239,0-1.037-.08-2.831-.08-1.914,0-2.791.08-3.03.08-.12,0-.159-.04-.159-.12v-.558c0-.08.08-.12.159-.12H483.6c.4,0,.837-.08.917-.6.04-.319.12-4.7.12-5.741V62.9Z" transform="translate(-340.474 -56.721)"/>
      <path id="Path_30326" data-name="Path 30326" class="cls-1" d="M510.192,78.854a.4.4,0,0,0,.439.439h.638c.2,0,.239.08.239.2v.319c0,.159-.04.239-.159.239-.159,0-.757-.08-1.914-.08-1.036,0-1.674.08-1.834.08-.12,0-.159-.08-.159-.239v-.319c0-.159.08-.2.279-.2h.6c.239,0,.4-.12.4-.478.04-.518.04-1.2.04-1.714V74.429c0-.8,0-1.4-.6-1.834a2.212,2.212,0,0,0-1.475-.359,2.42,2.42,0,0,0-1.635.8,2.046,2.046,0,0,0-.478,1.4v4.186c0,.558.08.678.478.678h.518c.159,0,.2.08.2.2v.359c0,.12-.04.2-.159.2-.159,0-.678-.08-1.754-.08-1.037,0-1.674.08-1.794.08s-.159-.08-.159-.2v-.359c0-.12.04-.2.2-.2h.6c.279,0,.4-.08.4-.4V74.11a1.245,1.245,0,0,0-.837-1.2l-.159-.08c-.159-.08-.159-.12-.159-.2v-.12c0-.12.08-.159.2-.2l1.754-.957a1.226,1.226,0,0,1,.359-.159c.12,0,.159.08.159.239l.159,1.236h.04A4.114,4.114,0,0,1,507.4,71.2a3.145,3.145,0,0,1,1.714.439,3.026,3.026,0,0,1,1.116,1.914v5.3Z" transform="translate(-352.321 -65.26)"/>
      <path id="Path_30327" data-name="Path 30327" class="cls-1" d="M529.562,79.672a.3.3,0,0,1-.12-.279l-.359-1.914c-.04-.12.04-.159.12-.159l.279-.08c.08-.04.159.04.2.12l.518,1c.4.757.678,1.276,1.754,1.276a1.478,1.478,0,0,0,1.595-1.4c0-.917-.439-1.435-1.953-1.874-1.2-.359-2.392-.957-2.392-2.591a2.68,2.68,0,0,1,2.831-2.472,3.641,3.641,0,0,1,1.874.439c.319.159.359.239.359.359l.319,1.435a.2.2,0,0,1-.159.2l-.239.08c-.08.04-.12,0-.2-.12l-.678-.917a1.544,1.544,0,0,0-1.435-.8,1.441,1.441,0,0,0-1.555,1.355c0,1.2.957,1.4,1.953,1.674,1.475.439,2.432,1.037,2.432,2.591a2.8,2.8,0,0,1-3.07,2.671A4.567,4.567,0,0,1,529.562,79.672Z" transform="translate(-368.661 -65.32)"/>
      <path id="Path_30328" data-name="Path 30328" class="cls-1" d="M549.31,74.352c0,1.515.678,1.794,1.036,1.794a2.839,2.839,0,0,0,1.355-.279c.12-.08.2-.04.239.04l.12.2c.08.08.04.159-.04.239a3.424,3.424,0,0,1-2.233.8,2.058,2.058,0,0,1-1.953-1.714c0-.837.08-2.631.08-2.91V72.04c0-.359.04-1.714.04-2.591h-1.236c-.2,0-.319-.08-.319-.239s.12-.239.359-.359a9.581,9.581,0,0,0,2.312-2.551c.08-.159.159-.2.279-.2.159,0,.2.159.2.319l-.12,1.993h2.831c.12,0,.2.12.159.2l-.2.718c-.04.12-.08.159-.2.159H549.39c-.04.917-.08,1.914-.08,2.831Z" transform="translate(-379.08 -62.193)"/>
      <path id="Path_30329" data-name="Path 30329" class="cls-1" d="M564.215,66.213c0-.678-.12-1.037-1.116-1.236-.159-.04-.2-.08-.2-.159v-.2c0-.08.04-.12.159-.159a14.627,14.627,0,0,0,2.193-1,.891.891,0,0,1,.4-.12c.12,0,.12.12.12.239-.04.359-.04,1.635-.04,3.309v2.193c0,.8,0,1.515.04,1.754.04.4.12.518.319.518h.917c.159,0,.2.08.2.2v.359c0,.159-.04.2-.2.2s-1.076-.08-1.953-.08c-1.2,0-1.953.08-2.193.08-.12,0-.159-.04-.159-.159v-.4c0-.12.08-.159.2-.159h1c.239,0,.319-.08.319-.4.04-.6.04-1.236.04-1.834v-2.95Zm-.877-6.977a1.113,1.113,0,0,1,1.236-1.037.993.993,0,0,1,1.037,1,1.108,1.108,0,0,1-1.2,1.116A1.189,1.189,0,0,1,563.338,59.237Z" transform="translate(-388.882 -57.443)"/>
      <path id="Path_30330" data-name="Path 30330" class="cls-1" d="M579.11,74.352c0,1.515.678,1.794,1.036,1.794a2.839,2.839,0,0,0,1.355-.279c.12-.08.2-.04.239.04l.12.2c.08.08.04.159-.04.239a3.423,3.423,0,0,1-2.232.8,2.058,2.058,0,0,1-1.953-1.714c0-.837.08-2.631.08-2.91V72.04c0-.359.04-1.714.04-2.591h-1.236c-.2,0-.319-.08-.319-.239s.12-.239.359-.359a9.58,9.58,0,0,0,2.312-2.551c.08-.159.159-.2.279-.2.159,0,.2.159.2.319l-.12,1.993h2.831c.12,0,.2.12.159.2l-.2.718c-.04.12-.08.159-.2.159H579.19c-.04.917-.08,1.914-.08,2.831Z" transform="translate(-397 -62.193)"/>
      <path id="Path_30331" data-name="Path 30331" class="cls-1" d="M600.133,76.125c0,.957,0,1.953.04,2.392.08.638.279.718.518.718a2.346,2.346,0,0,0,.678-.08c.159-.04.239,0,.239.08l.08.279c.04.12-.04.159-.12.2l-2.113.718a1.179,1.179,0,0,1-.4.08c-.08,0-.159-.04-.2-.239l-.159-1.2h-.04a3.7,3.7,0,0,1-2.751,1.435,2.214,2.214,0,0,1-1.914-.917c-.837-1.076-.8-1.754-.8-3.987V73.255a.71.71,0,0,0-.757-.757c-.359-.04-.439-.04-.439-.159v-.359c0-.12.04-.159.239-.159h1.794c.12,0,.2-.04.279-.04h.239a.23.23,0,0,1,.239.239,21.976,21.976,0,0,0-.08,2.352v1.435c0,.8-.2,2.113.438,3.03a1.728,1.728,0,0,0,1.635.757,2.832,2.832,0,0,0,1.754-1,1.164,1.164,0,0,0,.2-.558V73.175c-.04-.558-.359-.678-.877-.718-.359,0-.439-.04-.439-.159v-.359c0-.159.04-.2.239-.2h1.874c.159,0,.239-.04.359-.04h.239a.214.214,0,0,1,.2.2,15.624,15.624,0,0,0-.12,2.711v1.515Z" transform="translate(-406.501 -65.561)"/>
      <path id="Path_30332" data-name="Path 30332" class="cls-1" d="M621.11,74.352c0,1.515.678,1.794,1.036,1.794a2.839,2.839,0,0,0,1.355-.279c.12-.08.2-.04.239.04l.12.2c.08.08.04.159-.04.239a3.424,3.424,0,0,1-2.232.8,2.058,2.058,0,0,1-1.953-1.714c0-.837.08-2.631.08-2.91V72.04c0-.359.04-1.714.04-2.591h-1.236c-.2,0-.319-.08-.319-.239s.12-.239.359-.359a9.58,9.58,0,0,0,2.312-2.551c.08-.159.159-.2.279-.2.159,0,.2.159.2.319l-.12,1.993h2.831c.12,0,.2.12.159.2l-.2.718c-.04.12-.08.159-.2.159H621.19c-.04.917-.08,1.914-.08,2.831Z" transform="translate(-422.256 -62.193)"/>
      <path id="Path_30333" data-name="Path 30333" class="cls-1" d="M636.655,74.609a4.994,4.994,0,0,0-.08.957c0,1.993,1.276,3.508,2.87,3.508a2.792,2.792,0,0,0,2.472-1.4.219.219,0,0,1,.2-.12l.279.159c.08.04.12.08,0,.319a3.68,3.68,0,0,1-3.229,2.193,3.774,3.774,0,0,1-3.189-1.435,4.776,4.776,0,0,1-.877-3.189,4.558,4.558,0,0,1,1.276-3.229,3.816,3.816,0,0,1,2.91-1.076,3.052,3.052,0,0,1,2.99,2.99c0,.279-.239.319-.558.319Zm3.229-.6c.4,0,.558-.12.558-.279,0-.478-.239-1.794-1.555-1.794-.877,0-1.754.6-2.113,2.073Z" transform="translate(-432.418 -65.32)"/>
    </g>
    <g id="Group_5465" data-name="Group 5465">
      <g id="Group_5464" data-name="Group 5464">
        <path id="Path_30334" data-name="Path 30334" class="cls-2" d="M37.355,46.883a9.222,9.222,0,0,1-3.07,4.345,5.51,5.51,0,0,1-3.468,1.037c-9.09-.638-15.668-12.4-14.671-26.272.8-11.242,6.339-20.412,13.236-23.123a22.356,22.356,0,0,1,3.747-1.316h.08c.678-.12,3.468-.478,3.468-.478C30.737,1.635,29.94,0,29.94,0c-3.229,2.791-4.7,2.831-4.7,2.831A2.172,2.172,0,0,1,22.684.957c-3.389,4.425-4.425.359-4.425.359-2.352,15.947-5.1,2.95-5.1,2.95C11.482,7.774,8.292,2.791,8.292,2.791c.917,3.03-2.95-.2-2.95-.2C7.216,9.09,3.827,6.7,3.827,6.7c2.791,3.947-.957,3.149-.957,3.149.518.159,3.747,3.947,3.747,3.947,3.827,4.824.837,3.269.837,3.269-1.236-.279-3.269-2.312-3.269-2.312C4.664,19.694,0,16.425,0,16.425l2.352,2.831c3.03,2.512-.678,4.7-.678,4.7,6.339-.6,5.143,3.189,5.143,3.189C6.1,29.86,1.953,30.7,1.953,30.7c4.864-.478.8,4.625.8,4.625,3.668-3.468,4.465.877,4.465.877C11,31.734,13.4,32.013,13.4,32.013s1.276,7.973,4.864,13.555c0,0,4.186,7.694,12.638,7.854a10.481,10.481,0,0,0,6.06-1.635l.837-4.744Z"/>
      </g>
    </g>
    <path id="Path_30335" data-name="Path 30335" class="cls-3" d="M66.948,29.738a10.843,10.843,0,0,0-5.821-.2c-2.033.8-.678,1.276-.678,1.276,1.156.757,4.824.678,4.824.678a1.424,1.424,0,0,0-.478.8c-.518,1.076,3.389,4.385,3.389,4.385l-2.392-.319c-1.754-.4-.957,1.714-.957,1.714a5.123,5.123,0,0,0-2.472-.638c-1.794.04-.957,2.153-.957,2.153l-2.831-1.4c-3.987-2.153-4.425.04-4.425.04-.478.6.2,4.226.2,4.226L53,41.539c-.877-.757-1.475,2.113-1.475,2.113-1.4-6.857-5.7-7.136-5.7-7.136l-.239-.04c-.08-1.435-.2-3.708-.12-5.223.6-14.432,8.571-25.754,17.82-25.275l2.233.159c-5.541,3.189,1.156,4.744,1.156,4.744s-9.05.757-1.116,4.027c0,0-6.578.08-7.694,1.635,0,0-1.794,2.791,7.654.8,0,0-5.422,4.385,5.661,4.385C71.174,21.725,60.53,24.6,66.948,29.738Z" transform="translate(-27.321 -3.586)"/>
    <g id="Group_5466" data-name="Group 5466" transform="translate(50.232 46.803)">
      <path id="Path_30336" data-name="Path 30336" d="M127.714,120.988c-.08.159-.439,1.276-.478,1.475v.159a.272.272,0,0,0,.279.2h.319c.08,0,.08,0,.08.04v.2c0,.04,0,.08-.08.08-.12,0-.439-.04-.957-.04-.558,0-.718.04-.837.04-.04,0-.04-.04-.04-.08V122.9c0-.04,0-.08.04-.08h.239a.539.539,0,0,0,.478-.359c.08-.12.638-1.515.877-2.153.04-.159.678-1.794.757-1.993,0-.08.08-.2,0-.279a.123.123,0,0,1-.04-.08c0-.04,0-.08.08-.08a2.225,2.225,0,0,0,.757-.4c.04-.04.08-.08.12-.08s.08.08.08.12c.12.478.718,2.193.877,2.671.2.6.678,2.033.8,2.233a.517.517,0,0,0,.478.359h.239c.04,0,.08,0,.08.04v.159c0,.04,0,.08-.08.08-.12,0-.279-.04-1.116-.04-.638,0-.917.04-1.076.04-.08,0-.08-.04-.08-.08v-.159c0-.04,0-.08.08-.08h.2c.2,0,.279-.08.239-.279-.08-.279-.359-1.276-.478-1.555h-1.834Zm1.714-.319c-.08-.239-.6-1.953-.638-2.113-.04-.08-.04-.12-.08-.12a.086.086,0,0,0-.08.08c-.04.08-.718,1.993-.757,2.153h1.555Z" transform="translate(-126 -117.4)"/>
      <path id="Path_30337" data-name="Path 30337" d="M143.972,118h-.2a3.811,3.811,0,0,0-1.116.12,2.573,2.573,0,0,0-.678.877c-.04.04-.04.08-.08.04l-.159-.04c-.04,0-.04-.04-.04-.08.08-.279.319-1.316.359-1.4,0-.12.08-.12.08-.12.04,0,.08.04.12.08a.66.66,0,0,0,.518.2c.4,0,.718.04,1.475.04h.4c.837,0,1.156-.04,1.515-.04a1.339,1.339,0,0,0,.558-.2c.08-.04.08-.08.12-.08s.08.04.08.12c0,.12.159,1.076.239,1.435,0,.04,0,.08-.04.08l-.159.04c-.04,0-.04,0-.08-.08a4.269,4.269,0,0,0-.6-.877,3.811,3.811,0,0,0-1.2-.12h-.2v4.066c0,.6.08.718.279.718h.439c.04,0,.04.04.04.08v.159c0,.04,0,.08-.08.08s-.319-.04-1.156-.04c-.8,0-1.116.04-1.2.04-.04,0-.08,0-.08-.08v-.159a.139.139,0,0,1,.04-.08h.439c.159,0,.239-.08.239-.2.04-.2.04-2.551.04-2.711V118Z" transform="translate(-135.441 -117.4)"/>
      <path id="Path_30338" data-name="Path 30338" d="M167.618,119.874v-1.4c0-.12-.08-.159-.279-.159h-.4c-.04,0-.04,0-.04-.04v-.2c0-.04,0-.08.04-.08.08,0,.359.04,1.116.04.12,0,.6-.04.837-.04a2.722,2.722,0,0,1,1.794.4,1.453,1.453,0,0,1,.6,1.156c0,.957-.718,1.555-2.033,1.555a3.438,3.438,0,0,1-.678-.04V122.9c.04.159.08.239.239.239h.439c.08,0,.08.04.08.04v.159c0,.04,0,.08-.08.08-.12,0-.359-.04-1.2-.04-.678,0-1,.04-1.076.04s-.08-.04-.08-.04v-.2c0-.04,0-.08.04-.08h.239c.279,0,.319-.04.359-.239,0-.08.04-1.276.04-2.153v-.837Zm.957.917a2.078,2.078,0,0,0,.558.08,1.434,1.434,0,0,0,.917-.518,1.4,1.4,0,0,0,.2-.8,1.2,1.2,0,0,0-1.2-1.276,1.635,1.635,0,0,0-.439.04v2.472Z" transform="translate(-150.595 -117.761)"/>
      <path id="Path_30339" data-name="Path 30339" d="M183.375,121.429a13.321,13.321,0,0,0,.04,1.435c.04.159.08.279.2.279h.4a.139.139,0,0,1,.08.04v.2a.086.086,0,0,1-.08.08,9.518,9.518,0,0,0-1.037-.04,9.079,9.079,0,0,0-1,.04.086.086,0,0,1-.08-.08v-.159c0-.04,0-.08.04-.08h.279c.159,0,.279-.04.279-.239v-4.226c0-.279-.12-.4-.239-.4h-.279c-.04,0-.04,0-.04-.04v-.2c0-.04,0-.04.04-.04a9.52,9.52,0,0,0,1.037.04c.439,0,1.116-.04,1.355-.04a2.1,2.1,0,0,1,1.4.478,1.131,1.131,0,0,1,.4.877c0,.957-.6,1.355-1.435,1.515v.04a1.088,1.088,0,0,1,.478.359c.08.12.558.837.638.917a9.532,9.532,0,0,0,.638.877.915.915,0,0,0,.558.159.139.139,0,0,1,.08.04v.159c0,.04,0,.08-.08.08s-.279-.04-.757-.04a3.647,3.647,0,0,0-.678.04,2.082,2.082,0,0,1-.319-.439c-.12-.2-.439-.757-.518-.877s-.279-.478-.4-.678c-.2-.279-.359-.478-.678-.478h-.239v.4Zm.04-.678c.12,0,.2.04.279.04a1.329,1.329,0,0,0,1.435-1.316,1.451,1.451,0,0,0-.319-.877,1.5,1.5,0,0,0-1-.319.591.591,0,0,0-.279.04c-.08.04-.08.12-.08.239Z" transform="translate(-159.615 -117.761)"/>
      <path id="Path_30340" data-name="Path 30340" d="M199.894,120.95v1.914c0,.239.12.279.319.279h.319c.04,0,.08,0,.08.04v.2a.086.086,0,0,1-.08.08c-.08,0-.4-.04-1.116-.04-.757,0-1.116.04-1.2.04-.04,0-.08,0-.08-.04v-.2c0-.04,0-.04.08-.04h.319c.159,0,.319,0,.359-.239,0-.12.04-1.754.04-2.193v-.518c0-.2,0-1.555-.04-1.674-.04-.2-.08-.279-.319-.279h-.4c-.04,0-.08,0-.08-.04v-.2c0-.04,0-.04.04-.04.08,0,.478.04,1.236.04.718,0,1-.04,1.076-.04a.086.086,0,0,1,.08.08v.159a.086.086,0,0,1-.08.08h-.279c-.159,0-.279.08-.279.2v2.432Z" transform="translate(-169.356 -117.761)"/>
      <path id="Path_30341" data-name="Path 30341" d="M209.556,120.114c0,1.316.08,2.392.08,2.631,0,.4.12.558.4.558h.2c.08,0,.08.04.08.08v.159c0,.04,0,.08-.08.08s-.518-.04-.837-.04c-.2,0-.718.04-.8.04-.04,0-.04,0-.04-.08v-.2a.039.039,0,0,1,.04-.04h.279c.2,0,.319-.159.359-.638,0-.12.04-1.2.04-2.432v-.957c0-.478-.279-.8-.6-.8h-.239a.039.039,0,0,1-.04-.04v-.2c0-.04,0-.04.04-.04h1.435c.08,0,.12.04.2.08.08.08,1.595,1.953,1.714,2.193.12.12,1.316,1.595,1.435,1.754h.04v-2.233a8.741,8.741,0,0,0-.08-1.156.384.384,0,0,0-.4-.279h-.239c-.04,0-.04-.04-.04-.08v-.159c0-.04,0-.08.08-.08s.319.04.877.04a6.449,6.449,0,0,0,.718-.04c.08,0,.08.04.08.04v.159c0,.04,0,.08-.04.08h-.2c-.159,0-.239.12-.239.4-.04.518-.12,1.794-.12,2.591v2.033c0,.12,0,.2-.08.2a.6.6,0,0,1-.279-.12c-.08-.08-.478-.558-.957-1.116-.518-.678-1.116-1.4-1.236-1.515s-1.316-1.635-1.435-1.754h-.04v.877Z" transform="translate(-175.55 -117.881)"/>
      <path id="Path_30342" data-name="Path 30342" d="M231,122.066c.04.04.04.04,0,.08a2.721,2.721,0,0,1-2.272,1.276,2.62,2.62,0,0,1-1.993-.718,2.994,2.994,0,0,1-.837-2.073,2.8,2.8,0,0,1,.8-2.033,2.646,2.646,0,0,1,1.993-.8,3.279,3.279,0,0,1,1.555.359c.12.08.12.08.159,0l.08-.2c0-.04.04-.04.12-.04s.12,0,.12.12.159,1.355.2,1.595c0,.04,0,.08-.04.08l-.159.04c-.04,0-.08,0-.08-.08a2.449,2.449,0,0,0-.6-1,1.759,1.759,0,0,0-1.316-.558c-1.236,0-1.714,1.116-1.714,2.193a2.93,2.93,0,0,0,.718,1.993,1.737,1.737,0,0,0,1.316.6,2.319,2.319,0,0,0,1.834-.877c.04-.04.08-.08.08-.04Z" transform="translate(-186.073 -117.641)"/>
      <path id="Path_30343" data-name="Path 30343" d="M245.135,121.229c0,.4.04,1.156.04,1.316,0,.4.12.558.319.6a1.942,1.942,0,0,0,.6.08,3.647,3.647,0,0,0,.638-.04,1.073,1.073,0,0,0,.638-.279c.12-.12.558-.638.718-.8.04-.04.04-.04.08-.04l.12.08c.04,0,.04.04,0,.08l-.359,1.156c-.04.08-.08.12-.159.12H243.58c-.04,0-.08,0-.08-.08v-.2c0-.04,0-.08.08-.08h.279c.359,0,.4-.04.4-.319v-2.591a16.511,16.511,0,0,0-.04-1.674c-.04-.2-.12-.279-.319-.279h-.279c-.04,0-.04,0-.04-.04v-.2c0-.04,0-.04.04-.04.159,0,.439.04,1.076.04h2.95c.04,0,.04,0,.08.04.04.08.319,1.156.359,1.236,0,.04,0,.08-.04.08l-.12.08c-.04,0-.04,0-.08-.04s-.678-.757-.837-.877a1.328,1.328,0,0,0-.6-.2l-1.156-.04v2.233a5.37,5.37,0,0,0,.877-.04.426.426,0,0,0,.359-.279,1.156,1.156,0,0,0,.12-.439.086.086,0,0,1,.08-.08h.2c.04,0,.04,0,.04.08v.837c0,.319.04.678.04.837,0,.04,0,.04-.08.04l-.159.04c-.04,0-.04,0-.08-.04-.04-.12-.08-.279-.12-.4a.434.434,0,0,0-.4-.279,6.758,6.758,0,0,0-.877-.04Z" transform="translate(-196.657 -117.761)"/>
      <path id="Path_30344" data-name="Path 30344" d="M260.239,121.747c.04,0,.04,0,.04.08a1.83,1.83,0,0,0,.279.877,1.238,1.238,0,0,0,1,.558.957.957,0,0,0,1-.877c0-.718-.319-.917-1.116-1.236a3.68,3.68,0,0,1-1.116-.638,1.385,1.385,0,0,1-.4-1.076,1.286,1.286,0,0,1,.518-1.076,1.475,1.475,0,0,1,1.076-.359,2,2,0,0,1,.957.2c.08.04.12,0,.159-.04l.08-.08a.146.146,0,0,1,.12-.04c.04,0,.08.04.08.12,0,.12.12,1.2.12,1.276,0,.04,0,.04-.04.04l-.12.04c-.04,0-.08,0-.08-.04a2.2,2.2,0,0,0-.478-.8,1.048,1.048,0,0,0-.8-.319.84.84,0,0,0-.877.757.98.98,0,0,0,.2.678,2.521,2.521,0,0,0,.917.478,2.346,2.346,0,0,1,1.116.6,1.545,1.545,0,0,1,.4,1.076,1.611,1.611,0,0,1-1.635,1.714,2,2,0,0,1-1.316-.359.219.219,0,0,0-.2-.08c-.04,0-.08.08-.12.12-.04.08-.08.08-.12.08-.08,0-.08-.04-.08-.12s.12-1.316.12-1.435c0-.04,0-.08.04-.08Z" transform="translate(-206.459 -117.761)"/>
      <path id="Path_30345" data-name="Path 30345" d="M274.139,121.747c.04,0,.04,0,.04.08a1.83,1.83,0,0,0,.279.877,1.238,1.238,0,0,0,1,.558.957.957,0,0,0,1-.877c0-.718-.319-.917-1.116-1.236a3.68,3.68,0,0,1-1.116-.638,1.385,1.385,0,0,1-.4-1.076,1.286,1.286,0,0,1,.518-1.076,1.475,1.475,0,0,1,1.076-.359,2,2,0,0,1,.957.2c.08.04.12,0,.159-.04l.08-.08a.146.146,0,0,1,.12-.04c.04,0,.08.04.08.12,0,.12.12,1.2.12,1.276,0,.04,0,.04-.04.04l-.12.04c-.04,0-.08,0-.08-.04a2.2,2.2,0,0,0-.478-.8,1.048,1.048,0,0,0-.8-.319.84.84,0,0,0-.877.757.98.98,0,0,0,.2.678,2.521,2.521,0,0,0,.917.478,2.346,2.346,0,0,1,1.116.6,1.545,1.545,0,0,1,.4,1.076,1.611,1.611,0,0,1-1.635,1.714,2,2,0,0,1-1.316-.359.219.219,0,0,0-.2-.08c-.04,0-.08.08-.12.12-.04.08-.08.08-.12.08-.08,0-.08-.04-.08-.12s.12-1.316.12-1.435c0-.04,0-.08.04-.08Z" transform="translate(-214.817 -117.761)"/>
      <path id="Path_30346" data-name="Path 30346" d="M299.921,120.671v-2.153h-.04c-.08.12-1.037,2.352-1.116,2.551-.12.239-.877,2.033-.917,2.113s-.08.159-.159.159q-.06,0-.12-.12c-.04-.04-1.037-2.432-1.076-2.551-.12-.359-.837-2.073-.917-2.153-.04.12-.04,2.033-.04,2.113s0,1.4.04,1.874c.04.359.12.638.359.638h.319a.139.139,0,0,1,.08.04v.2c0,.04,0,.08-.08.08s-.279-.04-.877-.04c-.678,0-.917.04-1,.04s-.08,0-.08-.08v-.2a.039.039,0,0,1,.04-.04h.359c.279,0,.359-.279.4-.558.08-.518.12-2.432.12-2.551v-1.316c0-.279-.04-.439-.359-.439h-.319a.139.139,0,0,1-.08-.04v-.2s0-.04.08-.04.279.04,1.076.04c.359,0,.6-.04.678-.04a.219.219,0,0,1,.2.12c.279.718,1.355,3.269,1.595,3.907.08-.12.6-1.4.8-1.834.12-.319.837-1.914.877-2.033.04-.08.12-.08.319-.08,1.116,0,1.4-.04,1.475-.04.04,0,.04.04.04.08v.159c0,.04,0,.08-.08.08H301.2c-.2,0-.2.12-.239.319v4.146c0,.279.08.4.2.4h.4a.039.039,0,0,1,.04.04v.159c0,.04,0,.08-.08.08s-.478-.04-1.116-.04c-.757,0-1.037.04-1.156.04a.086.086,0,0,1-.08-.08v-.159c0-.04,0-.08.08-.08h.478c.12,0,.2-.04.239-.279,0-.08.04-1.2.04-1.794v-.439Z" transform="translate(-227.205 -117.761)"/>
      <path id="Path_30347" data-name="Path 30347" d="M317.914,120.988c-.08.159-.439,1.276-.478,1.475v.159a.272.272,0,0,0,.279.2h.319c.08,0,.08,0,.08.04v.2c0,.04,0,.08-.08.08-.12,0-.439-.04-.957-.04-.558,0-.718.04-.837.04-.04,0-.04-.04-.04-.08V122.9c0-.04,0-.08.04-.08h.239a.539.539,0,0,0,.478-.359c.08-.12.638-1.515.877-2.153.04-.159.678-1.794.757-1.993,0-.08.08-.2,0-.279a.123.123,0,0,1-.04-.08c0-.04,0-.08.08-.08a2.225,2.225,0,0,0,.757-.4c.04-.04.08-.08.12-.08s.08.08.08.12c.12.478.718,2.193.877,2.671.2.6.678,2.033.8,2.233a.517.517,0,0,0,.478.359h.239c.04,0,.08,0,.08.04v.159c0,.04,0,.08-.08.08-.12,0-.279-.04-1.116-.04-.638,0-.917.04-1.076.04-.08,0-.08-.04-.08-.08v-.159c0-.04,0-.08.08-.08h.2c.2,0,.279-.08.239-.279-.08-.279-.359-1.276-.478-1.555h-1.834Zm1.674-.319c-.08-.239-.6-1.953-.638-2.113-.04-.08-.04-.12-.08-.12a.086.086,0,0,0-.08.08c-.04.08-.718,1.993-.757,2.153h1.555Z" transform="translate(-240.374 -117.4)"/>
      <path id="Path_30348" data-name="Path 30348" d="M336.175,121.429a13.326,13.326,0,0,0,.04,1.435c.04.159.08.279.2.279h.4a.139.139,0,0,1,.08.04v.2a.086.086,0,0,1-.08.08,9.519,9.519,0,0,0-1.037-.04,9.079,9.079,0,0,0-1,.04.086.086,0,0,1-.08-.08v-.159c0-.04,0-.08.04-.08h.279c.159,0,.279-.04.279-.239v-4.226c0-.279-.12-.4-.239-.4h-.279c-.04,0-.04,0-.04-.04v-.2c0-.04,0-.04.04-.04a9.518,9.518,0,0,0,1.037.04c.439,0,1.116-.04,1.355-.04a2.1,2.1,0,0,1,1.4.478,1.13,1.13,0,0,1,.4.877c0,.957-.6,1.355-1.435,1.515v.04a1.088,1.088,0,0,1,.478.359c.08.12.558.837.638.917a9.526,9.526,0,0,0,.638.877.915.915,0,0,0,.558.159.139.139,0,0,1,.08.04v.159c0,.04,0,.08-.08.08s-.279-.04-.757-.04a3.647,3.647,0,0,0-.678.04,2.082,2.082,0,0,1-.319-.439c-.12-.2-.439-.757-.518-.877s-.279-.478-.4-.678c-.2-.279-.359-.478-.678-.478h-.239v.4Zm.04-.678c.12,0,.2.04.279.04a1.329,1.329,0,0,0,1.435-1.316,1.451,1.451,0,0,0-.319-.877,1.5,1.5,0,0,0-1-.319.591.591,0,0,0-.279.04c-.08.04-.08.12-.08.239Z" transform="translate(-251.499 -117.761)"/>
      <path id="Path_30349" data-name="Path 30349" d="M356.483,122.644a1.41,1.41,0,0,0,.04.239c0,.08-.04.08-.12.12a4.568,4.568,0,0,1-2.193.518,3.007,3.007,0,0,1-2.193-.877,2.914,2.914,0,0,1-.718-2.073,2.547,2.547,0,0,1,.877-1.914,3.247,3.247,0,0,1,2.193-.757,3.074,3.074,0,0,1,1.555.4c.08.08.12.04.2,0l.08-.12c.04-.04.08-.08.12-.08.08,0,.08.04.08.12l.08,1.515c0,.08,0,.08-.04.12l-.2.04c-.04,0-.08,0-.08-.08a4.215,4.215,0,0,0-.6-1.076,1.724,1.724,0,0,0-1.276-.518,1.615,1.615,0,0,0-1.316.6,2.732,2.732,0,0,0-.638,1.714,2.985,2.985,0,0,0,.678,2.113,1.6,1.6,0,0,0,1.236.518,2.264,2.264,0,0,0,1.037-.2c.159-.08.2-.319.2-.718v-.558c0-.279-.08-.359-.279-.359h-.319a.086.086,0,0,1-.08-.08v-.159c0-.04,0-.08.04-.08.08,0,.478.04,1.076.04.638,0,.917-.04,1-.04s.08,0,.08.04v.2c0,.04,0,.08-.08.08h-.279c-.12,0-.239.08-.239.279v1.037Z" transform="translate(-261.481 -117.701)"/>
      <path id="Path_30350" data-name="Path 30350" d="M369.914,120.988c-.08.159-.439,1.276-.478,1.475v.159a.272.272,0,0,0,.279.2h.319c.08,0,.08,0,.08.04v.2c0,.04,0,.08-.08.08-.12,0-.439-.04-.957-.04-.558,0-.718.04-.837.04-.04,0-.04-.04-.04-.08V122.9c0-.04,0-.08.04-.08h.239a.539.539,0,0,0,.478-.359c.08-.12.638-1.515.877-2.153.04-.159.678-1.794.757-1.993,0-.08.08-.2,0-.279a.123.123,0,0,1-.04-.08c0-.04,0-.08.08-.08a2.224,2.224,0,0,0,.757-.4c.04-.04.08-.08.12-.08s.08.08.08.12c.12.478.718,2.193.877,2.671.2.6.678,2.033.8,2.233a.517.517,0,0,0,.478.359h.239c.04,0,.08,0,.08.04v.159c0,.04,0,.08-.08.08-.12,0-.279-.04-1.116-.04-.638,0-.917.04-1.076.04-.08,0-.08-.04-.08-.08v-.159c0-.04,0-.08.08-.08h.2c.2,0,.279-.08.239-.279-.08-.279-.359-1.276-.478-1.555h-1.834Zm1.714-.319c-.08-.239-.6-1.953-.638-2.113-.04-.08-.04-.12-.08-.12a.086.086,0,0,0-.08.08c-.04.08-.718,1.993-.757,2.153h1.555Z" transform="translate(-271.643 -117.4)"/>
      <path id="Path_30351" data-name="Path 30351" d="M388.675,121.429a13.326,13.326,0,0,0,.04,1.435c.04.159.08.279.2.279h.4a.139.139,0,0,1,.08.04v.2a.086.086,0,0,1-.08.08,9.519,9.519,0,0,0-1.037-.04,9.078,9.078,0,0,0-1,.04.086.086,0,0,1-.08-.08v-.159c0-.04,0-.08.04-.08h.279c.159,0,.279-.04.279-.239v-4.226c0-.279-.12-.4-.239-.4h-.279c-.04,0-.04,0-.04-.04v-.2c0-.04,0-.04.04-.04a9.518,9.518,0,0,0,1.037.04c.439,0,1.116-.04,1.355-.04a2.1,2.1,0,0,1,1.4.478,1.13,1.13,0,0,1,.4.877c0,.957-.6,1.355-1.435,1.515v.04a1.088,1.088,0,0,1,.478.359c.08.12.558.837.638.917a9.526,9.526,0,0,0,.638.877.915.915,0,0,0,.558.159.139.139,0,0,1,.08.04v.159c0,.04,0,.08-.08.08s-.279-.04-.757-.04a3.647,3.647,0,0,0-.678.04,2.081,2.081,0,0,1-.319-.439c-.12-.2-.439-.757-.518-.877s-.279-.478-.4-.678c-.2-.279-.359-.478-.678-.478h-.239v.4Zm0-.678c.12,0,.2.04.279.04a1.329,1.329,0,0,0,1.435-1.316,1.451,1.451,0,0,0-.319-.877,1.5,1.5,0,0,0-1-.319.591.591,0,0,0-.279.04c-.08.04-.08.12-.08.239Z" transform="translate(-283.069 -117.761)"/>
      <path id="Path_30352" data-name="Path 30352" d="M405.435,121.229c0,.4.04,1.156.04,1.316,0,.4.12.558.319.6a1.942,1.942,0,0,0,.6.08,3.647,3.647,0,0,0,.638-.04,1.073,1.073,0,0,0,.638-.279c.12-.12.558-.638.718-.8.04-.04.04-.04.08-.04l.12.08c.04,0,.04.04,0,.08l-.359,1.156c-.04.08-.08.12-.159.12H403.88c-.04,0-.08,0-.08-.08v-.2c0-.04,0-.08.08-.08h.279c.359,0,.4-.04.4-.319v-2.591a16.5,16.5,0,0,0-.04-1.674c-.04-.2-.12-.279-.319-.279h-.279c-.04,0-.04,0-.04-.04v-.2c0-.04,0-.04.04-.04.159,0,.439.04,1.076.04h2.95c.04,0,.04,0,.08.04.04.08.319,1.156.359,1.236,0,.04,0,.08-.04.08l-.12.08c-.04,0-.04,0-.08-.04s-.678-.757-.837-.877a1.327,1.327,0,0,0-.6-.2l-1.156-.04v2.233a5.37,5.37,0,0,0,.877-.04.426.426,0,0,0,.359-.279,1.156,1.156,0,0,0,.12-.439.086.086,0,0,1,.08-.08h.2c.04,0,.04,0,.04.08v.837c0,.319.04.678.04.837,0,.04,0,.04-.08.04l-.159.04c-.04,0-.04,0-.08-.04-.04-.12-.08-.279-.12-.4a.434.434,0,0,0-.4-.279,6.758,6.758,0,0,0-.877-.04Z" transform="translate(-293.051 -117.761)"/>
      <path id="Path_30353" data-name="Path 30353" d="M421.572,118h-.2a3.811,3.811,0,0,0-1.116.12,2.574,2.574,0,0,0-.678.877c-.04.04-.04.08-.08.04l-.159-.04c-.04,0-.04-.04-.04-.08.08-.279.319-1.316.359-1.4,0-.12.08-.12.08-.12.04,0,.08.04.12.08a.66.66,0,0,0,.518.2c.4,0,.718.04,1.475.04h.4c.837,0,1.156-.04,1.515-.04a1.34,1.34,0,0,0,.558-.2c.08-.04.08-.08.12-.08s.08.04.08.12c0,.12.159,1.076.239,1.435,0,.04,0,.08-.04.08l-.159.04c-.04,0-.04,0-.08-.08a4.267,4.267,0,0,0-.6-.877,3.811,3.811,0,0,0-1.2-.12h-.2v4.066c0,.6.08.718.279.718h.439c.04,0,.04.04.04.08v.159c0,.04,0,.08-.08.08s-.319-.04-1.156-.04c-.8,0-1.116.04-1.2.04-.04,0-.08,0-.08-.08v-.159a.139.139,0,0,1,.04-.08h.439c.159,0,.239-.08.239-.2.04-.2.04-2.551.04-2.711V118Z" transform="translate(-302.371 -117.4)"/>
      <path id="Path_30354" data-name="Path 30354" d="M450,122.066c.04.04.04.04,0,.08a2.721,2.721,0,0,1-2.272,1.276,2.62,2.62,0,0,1-1.993-.718,2.994,2.994,0,0,1-.837-2.073,2.8,2.8,0,0,1,.8-2.033,2.646,2.646,0,0,1,1.993-.8,3.279,3.279,0,0,1,1.555.359c.12.08.12.08.159,0l.08-.2c0-.04.04-.04.12-.04s.12,0,.12.12.159,1.355.2,1.595c0,.04,0,.08-.04.08l-.159.04c-.04,0-.08,0-.08-.08a2.449,2.449,0,0,0-.6-1,1.759,1.759,0,0,0-1.316-.558c-1.236,0-1.714,1.116-1.714,2.193a2.93,2.93,0,0,0,.718,1.993,1.737,1.737,0,0,0,1.316.6,2.319,2.319,0,0,0,1.834-.877c.04-.04.08-.08.08-.04Z" transform="translate(-317.766 -117.641)"/>
      <path id="Path_30355" data-name="Path 30355" d="M461.614,120.988c-.08.159-.439,1.276-.478,1.475v.159a.272.272,0,0,0,.279.2h.319c.08,0,.08,0,.08.04v.2c0,.04,0,.08-.08.08-.12,0-.439-.04-.957-.04-.558,0-.718.04-.837.04-.04,0-.04-.04-.04-.08V122.9c0-.04,0-.08.04-.08h.239a.539.539,0,0,0,.478-.359c.08-.12.638-1.515.877-2.153.04-.159.678-1.794.757-1.993,0-.08.08-.2,0-.279a.123.123,0,0,1-.04-.08c0-.04,0-.08.08-.08a2.224,2.224,0,0,0,.757-.4c.04-.04.08-.08.12-.08s.08.08.08.12c.12.478.718,2.193.877,2.671.2.6.678,2.033.8,2.233a.517.517,0,0,0,.478.359h.239c.04,0,.08,0,.08.04v.159c0,.04,0,.08-.08.08-.12,0-.279-.04-1.116-.04-.638,0-.917.04-1.076.04-.08,0-.08-.04-.08-.08v-.159c0-.04,0-.08.08-.08h.2c.2,0,.279-.08.239-.279-.08-.279-.359-1.276-.478-1.555h-1.834Zm1.714-.319c-.08-.239-.6-1.953-.638-2.113-.04-.08-.04-.12-.08-.12a.086.086,0,0,0-.08.08c-.04.08-.718,1.993-.757,2.153h1.555Z" transform="translate(-326.786 -117.4)"/>
      <path id="Path_30356" data-name="Path 30356" d="M478.1,120.114c0,1.316.08,2.392.08,2.631,0,.4.12.558.4.558h.2c.08,0,.08.04.08.08v.159c0,.04,0,.08-.08.08s-.518-.04-.837-.04c-.2,0-.718.04-.8.04-.04,0-.04,0-.04-.08v-.2a.039.039,0,0,1,.04-.04h.279c.2,0,.319-.159.359-.638,0-.12.04-1.2.04-2.432v-.957c0-.478-.279-.8-.6-.8h-.279a.039.039,0,0,1-.04-.04v-.2c0-.04,0-.04.04-.04h1.435c.08,0,.12.04.2.08.08.08,1.595,1.953,1.714,2.193.12.12,1.316,1.595,1.435,1.754h.04v-2.233a8.738,8.738,0,0,0-.08-1.156.384.384,0,0,0-.4-.279h-.239c-.04,0-.04-.04-.04-.08v-.159c0-.04,0-.08.08-.08s.319.04.877.04a6.448,6.448,0,0,0,.718-.04c.08,0,.08.04.08.04v.159c0,.04,0,.08-.04.08h-.2c-.159,0-.239.12-.239.4-.04.518-.12,1.794-.12,2.591v2.033c0,.12,0,.2-.08.2a.6.6,0,0,1-.279-.12c-.08-.08-.478-.558-.957-1.116-.518-.678-1.116-1.4-1.236-1.515s-1.316-1.635-1.435-1.754h-.04v.877Z" transform="translate(-337.008 -117.881)"/>
      <path id="Path_30357" data-name="Path 30357" d="M500.3,122.066c.04.04.04.04,0,.08a2.721,2.721,0,0,1-2.272,1.276,2.62,2.62,0,0,1-1.993-.718,2.994,2.994,0,0,1-.837-2.073,2.8,2.8,0,0,1,.8-2.033,2.646,2.646,0,0,1,1.993-.8,3.279,3.279,0,0,1,1.555.359c.12.08.12.08.159,0l.08-.2c0-.04.04-.04.12-.04s.12,0,.12.12.159,1.355.2,1.595c0,.04,0,.08-.04.08l-.159.04c-.04,0-.08,0-.08-.08a2.45,2.45,0,0,0-.6-1,1.759,1.759,0,0,0-1.316-.558c-1.236,0-1.714,1.116-1.714,2.193a2.93,2.93,0,0,0,.718,1.993,1.737,1.737,0,0,0,1.316.6,2.319,2.319,0,0,0,1.834-.877c.04-.04.08-.08.08-.04Z" transform="translate(-348.013 -117.641)"/>
      <path id="Path_30358" data-name="Path 30358" d="M514.434,121.229c0,.4.04,1.156.04,1.316,0,.4.12.558.319.6a1.942,1.942,0,0,0,.6.08,3.648,3.648,0,0,0,.638-.04,1.073,1.073,0,0,0,.638-.279c.12-.12.558-.638.718-.8.04-.04.04-.04.08-.04l.12.08c.04,0,.04.04,0,.08l-.359,1.156c-.04.08-.08.12-.159.12H512.88c-.04,0-.08,0-.08-.08v-.2c0-.04,0-.08.08-.08h.279c.359,0,.4-.04.4-.319v-2.591a16.517,16.517,0,0,0-.04-1.674c-.04-.2-.12-.279-.319-.279h-.279c-.04,0-.04,0-.04-.04v-.2c0-.04,0-.04.04-.04.159,0,.439.04,1.076.04h2.95c.04,0,.04,0,.08.04.04.08.319,1.156.359,1.236,0,.04,0,.08-.04.08l-.12.08c-.04,0-.04,0-.08-.04s-.678-.757-.837-.877a1.328,1.328,0,0,0-.6-.2l-1.156-.04v2.233a5.37,5.37,0,0,0,.877-.04.426.426,0,0,0,.359-.279,1.156,1.156,0,0,0,.12-.439.086.086,0,0,1,.08-.08h.2c.04,0,.04,0,.04.08v.837c0,.319.04.678.04.837,0,.04,0,.04-.08.04l-.16.04c-.04,0-.04,0-.08-.04-.04-.12-.08-.279-.12-.4a.434.434,0,0,0-.4-.279,6.758,6.758,0,0,0-.877-.04Z" transform="translate(-358.596 -117.761)"/>
      <path id="Path_30359" data-name="Path 30359" d="M530.675,121.429a13.326,13.326,0,0,0,.04,1.435c.04.159.08.279.2.279h.4a.139.139,0,0,1,.08.04v.2a.086.086,0,0,1-.08.08,9.518,9.518,0,0,0-1.036-.04,9.076,9.076,0,0,0-1,.04.086.086,0,0,1-.08-.08v-.159c0-.04,0-.08.04-.08h.279c.159,0,.279-.04.279-.239v-4.226c0-.279-.12-.4-.239-.4h-.279c-.04,0-.04,0-.04-.04v-.2c0-.04,0-.04.04-.04a9.518,9.518,0,0,0,1.036.04c.439,0,1.116-.04,1.355-.04a2.1,2.1,0,0,1,1.4.478,1.13,1.13,0,0,1,.4.877c0,.957-.6,1.355-1.435,1.515v.04a1.089,1.089,0,0,1,.478.359c.08.12.558.837.638.917a9.525,9.525,0,0,0,.638.877.915.915,0,0,0,.558.159.139.139,0,0,1,.08.04v.159c0,.04,0,.08-.08.08s-.279-.04-.758-.04a3.647,3.647,0,0,0-.678.04,2.082,2.082,0,0,1-.319-.439c-.12-.2-.439-.757-.518-.877s-.279-.478-.4-.678c-.2-.279-.359-.478-.678-.478h-.239v.4Zm0-.678c.12,0,.2.04.279.04a1.329,1.329,0,0,0,1.435-1.316,1.451,1.451,0,0,0-.319-.877,1.5,1.5,0,0,0-1-.319.591.591,0,0,0-.279.04c-.08.04-.08.12-.08.239Z" transform="translate(-368.458 -117.761)"/>
      <path id="Path_30360" data-name="Path 30360" d="M558.5,122.066c.04.04.04.04,0,.08a2.721,2.721,0,0,1-2.272,1.276,2.62,2.62,0,0,1-1.993-.718,2.993,2.993,0,0,1-.837-2.073,2.8,2.8,0,0,1,.8-2.033,2.646,2.646,0,0,1,1.993-.8,3.279,3.279,0,0,1,1.555.359c.12.08.12.08.159,0l.08-.2c0-.04.04-.04.12-.04s.12,0,.12.12.159,1.355.2,1.595c0,.04,0,.08-.04.08l-.159.04c-.04,0-.08,0-.08-.08a2.449,2.449,0,0,0-.6-1,1.759,1.759,0,0,0-1.316-.558c-1.236,0-1.714,1.116-1.714,2.193a2.93,2.93,0,0,0,.718,1.993,1.737,1.737,0,0,0,1.316.6,2.319,2.319,0,0,0,1.834-.877c.04-.04.08-.08.08-.04Z" transform="translate(-383.01 -117.641)"/>
      <path id="Path_30361" data-name="Path 30361" d="M571.834,121.229c0,.4.04,1.156.04,1.316,0,.4.12.558.319.6a1.942,1.942,0,0,0,.6.08,3.647,3.647,0,0,0,.638-.04,1.073,1.073,0,0,0,.638-.279c.12-.12.558-.638.718-.8.04-.04.04-.04.08-.04l.12.08c.04,0,.04.04,0,.08l-.359,1.156c-.04.08-.08.12-.159.12H570.28c-.04,0-.08,0-.08-.08v-.2c0-.04,0-.08.08-.08h.279c.359,0,.4-.04.4-.319v-2.591a16.542,16.542,0,0,0-.04-1.674c-.04-.2-.12-.279-.319-.279h-.279c-.04,0-.04,0-.04-.04v-.2c0-.04,0-.04.04-.04.159,0,.439.04,1.076.04h2.95c.04,0,.04,0,.08.04.04.08.319,1.156.359,1.236,0,.04,0,.08-.04.08l-.12.08c-.04,0-.04,0-.08-.04s-.678-.757-.837-.877a1.327,1.327,0,0,0-.6-.2l-1.156-.04v2.233a5.37,5.37,0,0,0,.877-.04.426.426,0,0,0,.359-.279,1.156,1.156,0,0,0,.12-.439.086.086,0,0,1,.08-.08h.2c.04,0,.04,0,.04.08v.837c0,.319.04.678.04.837,0,.04,0,.04-.08.04l-.159.04c-.04,0-.04,0-.08-.04-.04-.12-.08-.279-.12-.4a.434.434,0,0,0-.4-.279,6.758,6.758,0,0,0-.877-.04Z" transform="translate(-393.113 -117.761)"/>
      <path id="Path_30362" data-name="Path 30362" d="M586.956,120.114c0,1.316.08,2.392.08,2.631,0,.4.12.558.4.558h.2c.08,0,.08.04.08.08v.159c0,.04,0,.08-.08.08s-.518-.04-.837-.04c-.2,0-.718.04-.8.04-.04,0-.04,0-.04-.08v-.2a.039.039,0,0,1,.04-.04h.279c.2,0,.319-.159.359-.638,0-.12.04-1.2.04-2.432v-.957c0-.478-.279-.8-.6-.8h-.239a.039.039,0,0,1-.04-.04v-.2c0-.04,0-.04.04-.04h1.435c.08,0,.12.04.2.08.08.08,1.595,1.953,1.714,2.193.12.12,1.316,1.595,1.435,1.754h.04v-2.233a8.742,8.742,0,0,0-.08-1.156.384.384,0,0,0-.4-.279h-.239c-.04,0-.04-.04-.04-.08v-.159c0-.04,0-.08.08-.08s.319.04.877.04a6.45,6.45,0,0,0,.718-.04c.08,0,.08.04.08.04v.159c0,.04,0,.08-.04.08h-.2c-.159,0-.239.12-.239.4-.04.518-.12,1.794-.12,2.591v2.033c0,.12,0,.2-.08.2a.6.6,0,0,1-.279-.12c-.08-.08-.478-.558-.957-1.116-.518-.678-1.116-1.4-1.236-1.515s-1.316-1.635-1.435-1.754h-.04v.877Z" transform="translate(-402.494 -117.881)"/>
      <path id="Path_30363" data-name="Path 30363" d="M606.372,118h-.2a3.811,3.811,0,0,0-1.116.12,2.574,2.574,0,0,0-.678.877c-.04.04-.04.08-.08.04l-.159-.04c-.04,0-.04-.04-.04-.08.08-.279.319-1.316.359-1.4,0-.12.08-.12.08-.12.04,0,.08.04.12.08a.66.66,0,0,0,.518.2c.4,0,.718.04,1.475.04h.4c.837,0,1.156-.04,1.515-.04a1.34,1.34,0,0,0,.558-.2c.08-.04.08-.08.12-.08s.08.04.08.12c0,.12.159,1.076.239,1.435,0,.04,0,.08-.04.08l-.159.04c-.04,0-.04,0-.08-.08a4.267,4.267,0,0,0-.6-.877,3.811,3.811,0,0,0-1.2-.12h-.2v4.066c0,.6.08.718.279.718h.439c.04,0,.04.04.04.08v.159c0,.04,0,.08-.08.08s-.319-.04-1.156-.04c-.8,0-1.116.04-1.2.04-.04,0-.08,0-.08-.08v-.159a.139.139,0,0,1,.04-.08h.439c.159,0,.239-.08.239-.2.04-.2.04-2.551.04-2.711V118Z" transform="translate(-413.498 -117.4)"/>
      <path id="Path_30364" data-name="Path 30364" d="M624.175,121.429a13.306,13.306,0,0,0,.04,1.435c.04.159.08.279.2.279h.4a.139.139,0,0,1,.08.04v.2a.086.086,0,0,1-.08.08,9.518,9.518,0,0,0-1.036-.04,9.076,9.076,0,0,0-1,.04.086.086,0,0,1-.08-.08v-.159c0-.04,0-.08.04-.08h.279c.159,0,.279-.04.279-.239v-4.226c0-.279-.12-.4-.239-.4h-.279c-.04,0-.04,0-.04-.04v-.2c0-.04,0-.04.04-.04a9.516,9.516,0,0,0,1.036.04c.438,0,1.116-.04,1.355-.04a2.1,2.1,0,0,1,1.4.478,1.131,1.131,0,0,1,.4.877c0,.957-.6,1.355-1.435,1.515v.04a1.089,1.089,0,0,1,.478.359c.08.12.558.837.638.917a9.526,9.526,0,0,0,.638.877.915.915,0,0,0,.558.159.139.139,0,0,1,.08.04v.159c0,.04,0,.08-.08.08s-.279-.04-.757-.04a3.647,3.647,0,0,0-.678.04,2.082,2.082,0,0,1-.319-.439c-.12-.2-.439-.757-.518-.877s-.279-.478-.4-.678c-.2-.279-.359-.478-.678-.478h-.239v.4Zm0-.678c.12,0,.2.04.279.04a1.329,1.329,0,0,0,1.435-1.316,1.451,1.451,0,0,0-.319-.877,1.5,1.5,0,0,0-1-.319.591.591,0,0,0-.279.04c-.08.04-.08.12-.08.239Z" transform="translate(-424.683 -117.761)"/>
      <path id="Path_30365" data-name="Path 30365" d="M640.934,121.229c0,.4.04,1.156.04,1.316,0,.4.12.558.319.6a1.943,1.943,0,0,0,.6.08,3.647,3.647,0,0,0,.638-.04,1.073,1.073,0,0,0,.638-.279c.12-.12.558-.638.718-.8.04-.04.04-.04.08-.04l.12.08c.04,0,.04.04,0,.08l-.359,1.156c-.04.08-.08.12-.16.12H639.38c-.04,0-.08,0-.08-.08v-.2c0-.04,0-.08.08-.08h.279c.359,0,.4-.04.4-.319v-2.591a16.517,16.517,0,0,0-.04-1.674c-.04-.2-.12-.279-.319-.279h-.279c-.04,0-.04,0-.04-.04v-.2c0-.04,0-.04.04-.04.159,0,.439.04,1.076.04h2.95c.04,0,.04,0,.08.04.04.08.319,1.156.359,1.236,0,.04,0,.08-.04.08l-.12.08c-.04,0-.04,0-.08-.04s-.678-.757-.837-.877a1.328,1.328,0,0,0-.6-.2l-1.156-.04v2.233a5.37,5.37,0,0,0,.877-.04.426.426,0,0,0,.359-.279,1.158,1.158,0,0,0,.12-.439.086.086,0,0,1,.08-.08h.2c.04,0,.04,0,.04.08v.837c0,.319.04.678.04.837,0,.04,0,.04-.08.04l-.159.04c-.04,0-.04,0-.08-.04-.04-.12-.08-.279-.12-.4a.434.434,0,0,0-.4-.279,6.758,6.758,0,0,0-.877-.04Z" transform="translate(-434.665 -117.761)"/>
    </g>
  </g>
</svg>
