<svg xmlns="http://www.w3.org/2000/svg" viewBox="-1143 9391 78.6 71.6">
  <defs>
    <style>
      .cls-1 {
        fill: #af1f24;
      }

      .cls-2 {
        fill: #fed402;
      }

      .cls-3 {
        fill: #fff;
      }
    </style>
  </defs>
  <g id="Group_5456" data-name="Group 5456" transform="translate(-2722.2 4468.2)">
    <path id="Path_30286" data-name="Path 30286" class="cls-1" d="M575.2,68.7v71.6h78.6V68.7Z" transform="translate(1004 4854.1)"/>
    <g id="Group_5449" data-name="Group 5449" transform="translate(1004 4854.1)">
      <path id="Path_30287" data-name="Path 30287" class="cls-2" d="M578.8,118.8v7.8c12.4-7,35.9-17.5,71.5-20.4v-1.7C624.2,105.9,599.5,110.8,578.8,118.8Z"/>
    </g>
    <g id="Group_5450" data-name="Group 5450" transform="translate(1004 4854.1)">
      <path id="Path_30288" data-name="Path 30288" class="cls-3" d="M578.8,129.4v5.3c17.7-13.1,43.6-22.2,71.5-25.2v-1.6C622.8,110.4,598.6,117.9,578.8,129.4Z"/>
    </g>
    <g id="Group_5451" data-name="Group 5451" transform="translate(1004 4854.1)">
      <path id="Path_30289" data-name="Path 30289" class="cls-2" d="M622.3,87.3c2.7-.8,5-2.7,5-5.6,0-2.8-1.8-4.7-5.6-4.7-1.8,0-4,.2-5.6.2s-3.3,0-5.2-.1h-.1v1.3h.1c1.6.1,1.7.4,1.7,3.1V97c0,1.4-.2,2.1-1.4,2.2h-.4v1.3c1.2-.1,3.5-.1,4.5-.1s1.8.1,3,.1c7.5.3,9.9-3.9,9.9-7.3,0-4.3-3-5.3-5.9-5.9Zm1.2,6.3c0,3.6-2,5-5,5a6.958,6.958,0,0,1-1.6-.2v-10h1.3c3.9,0,5.3,2,5.3,5.2m-5.1-6.9c-.7,0-1.2-.1-1.4-.1V81.4a17.776,17.776,0,0,1,.1-2.5,7.18,7.18,0,0,1,1.7-.2c2.8,0,4.1,1.2,4.1,3.8-.1,3.7-2.8,4.2-4.5,4.2Z"/>
      <path id="Path_30290" data-name="Path 30290" class="cls-2" d="M599,97.2a9.687,9.687,0,0,1-5.1,1.3c-5.3,0-7.9-4.1-7.9-10.5,0-5.7,2.5-9.4,7.3-9.4a5.476,5.476,0,0,1,3.8,1.4c.1.5.3,3.3.3,3.3h1.3v-.1a35.659,35.659,0,0,1,.6-5.4v-.1h-.1a23.484,23.484,0,0,0-6.4-.9c-5.8,0-11.7,3.5-11.7,11.6,0,8.5,5.2,12.2,11.4,12.2a12.505,12.505,0,0,0,5.8-1.3h0l.9-1.7-.2-.4Z"/>
      <path id="Path_30291" data-name="Path 30291" class="cls-2" d="M647.4,97.2a9.687,9.687,0,0,1-5.1,1.3c-5.3,0-7.9-4.1-7.9-10.5,0-5.7,2.5-9.4,7.3-9.4a5.476,5.476,0,0,1,3.8,1.4c.1.5.3,3.3.3,3.3h1.3v-.1a35.659,35.659,0,0,1,.6-5.4v-.1h-.1a23.484,23.484,0,0,0-6.4-.9c-5.8,0-11.7,3.5-11.7,11.6,0,8.5,5.2,12.2,11.4,12.2a12.505,12.505,0,0,0,5.8-1.3h0l.9-1.7-.2-.4Z"/>
      <path id="Path_30292" data-name="Path 30292" class="cls-2" d="M605.1,77.2c-1.4,0-2.9,0-4.2-.1h-.1v1.3h.1c1.7.1,1.9.4,1.9,3.3V96.4c0,2.2-.1,2.6-1.8,2.7h-.1v1.3h.1c1.3-.1,2.7-.1,4-.1s2.6,0,4,.1h.1V99H609c-1.7-.1-1.8-.5-1.8-2.7V81.6c0-3,.1-3.2,1.8-3.3h.1V77H609a26.145,26.145,0,0,1-3.9.2Z"/>
    </g>
    <path id="Path_30293" data-name="Path 30293" class="cls-1" d="M575.2,68.7v71.6h78.6V68.7Z" transform="translate(1004 4854.1)"/>
    <g id="Group_5452" data-name="Group 5452" transform="translate(1004 4854.1)">
      <path id="Path_30287-2" data-name="Path 30287" class="cls-2" d="M578.8,118.8v7.8c12.4-7,35.9-17.5,71.5-20.4v-1.7C624.2,105.9,599.5,110.8,578.8,118.8Z"/>
    </g>
    <g id="Group_5453" data-name="Group 5453" transform="translate(1004 4854.1)">
      <path id="Path_30288-2" data-name="Path 30288" class="cls-3" d="M578.8,129.4v5.3c17.7-13.1,43.6-22.2,71.5-25.2v-1.6C622.8,110.4,598.6,117.9,578.8,129.4Z"/>
    </g>
    <g id="Group_5454" data-name="Group 5454" transform="translate(1004 4854.1)">
      <path id="Path_30289-2" data-name="Path 30289" class="cls-2" d="M622.3,87.3c2.7-.8,5-2.7,5-5.6,0-2.8-1.8-4.7-5.6-4.7-1.8,0-4,.2-5.6.2s-3.3,0-5.2-.1h-.1v1.3h.1c1.6.1,1.7.4,1.7,3.1V97c0,1.4-.2,2.1-1.4,2.2h-.4v1.3c1.2-.1,3.5-.1,4.5-.1s1.8.1,3,.1c7.5.3,9.9-3.9,9.9-7.3,0-4.3-3-5.3-5.9-5.9Zm1.2,6.3c0,3.6-2,5-5,5a6.958,6.958,0,0,1-1.6-.2v-10h1.3c3.9,0,5.3,2,5.3,5.2m-5.1-6.9c-.7,0-1.2-.1-1.4-.1V81.4a17.776,17.776,0,0,1,.1-2.5,7.18,7.18,0,0,1,1.7-.2c2.8,0,4.1,1.2,4.1,3.8-.1,3.7-2.8,4.2-4.5,4.2Z"/>
      <path id="Path_30290-2" data-name="Path 30290" class="cls-2" d="M599,97.2a9.687,9.687,0,0,1-5.1,1.3c-5.3,0-7.9-4.1-7.9-10.5,0-5.7,2.5-9.4,7.3-9.4a5.476,5.476,0,0,1,3.8,1.4c.1.5.3,3.3.3,3.3h1.3v-.1a35.659,35.659,0,0,1,.6-5.4v-.1h-.1a23.484,23.484,0,0,0-6.4-.9c-5.8,0-11.7,3.5-11.7,11.6,0,8.5,5.2,12.2,11.4,12.2a12.505,12.505,0,0,0,5.8-1.3h0l.9-1.7-.2-.4Z"/>
      <path id="Path_30291-2" data-name="Path 30291" class="cls-2" d="M647.4,97.2a9.687,9.687,0,0,1-5.1,1.3c-5.3,0-7.9-4.1-7.9-10.5,0-5.7,2.5-9.4,7.3-9.4a5.476,5.476,0,0,1,3.8,1.4c.1.5.3,3.3.3,3.3h1.3v-.1a35.659,35.659,0,0,1,.6-5.4v-.1h-.1a23.484,23.484,0,0,0-6.4-.9c-5.8,0-11.7,3.5-11.7,11.6,0,8.5,5.2,12.2,11.4,12.2a12.505,12.505,0,0,0,5.8-1.3h0l.9-1.7-.2-.4Z"/>
      <path id="Path_30292-2" data-name="Path 30292" class="cls-2" d="M605.1,77.2c-1.4,0-2.9,0-4.2-.1h-.1v1.3h.1c1.7.1,1.9.4,1.9,3.3V96.4c0,2.2-.1,2.6-1.8,2.7h-.1v1.3h.1c1.3-.1,2.7-.1,4-.1s2.6,0,4,.1h.1V99H609c-1.7-.1-1.8-.5-1.8-2.7V81.6c0-3,.1-3.2,1.8-3.3h.1V77H609a26.145,26.145,0,0,1-3.9.2Z"/>
    </g>
  </g>
</svg>
