<svg xmlns="http://www.w3.org/2000/svg" viewBox="-2608 9376 319.229 52.501">
  <defs>
    <style>
      .cls-1 {
        fill: #0077bf;
      }

      .cls-2 {
        fill: #b29e6e;
      }
    </style>
  </defs>
  <g id="Group_5477" data-name="Group 5477" transform="translate(-3612 4449.2)">
    <g id="Group_5448" data-name="Group 5448" transform="translate(1004 4926.8)">
      <g id="Group_5444" data-name="Group 5444" transform="translate(0 0)">
        <path id="Path_30245" data-name="Path 30245" class="cls-1" d="M440.7,136c0,1.83-.063,2.65-.5,3.471-.883,1.767-3.281,3.407-7.446,3.407-3.344,0-5.679-.947-6.941-2.65-.82-1.136-1.01-1.7-1.01-4.48V121.3h5.49v13.882c0,1.956.631,3.281,2.524,3.281,1.956,0,2.524-1.073,2.524-3.155V121.363h5.427V136Z" transform="translate(-156.746 -90.633)"/>
        <path id="Path_30246" data-name="Path 30246" class="cls-1" d="M463.044,142.6v-8.9H458.69v8.9H453.2V121.4h5.49v7.761h4.354V121.4h5.427v21.2Z" transform="translate(-167.225 -90.67)"/>
        <path id="Path_30247" data-name="Path 30247" class="cls-1" d="M491.022,142.6l-3.723-7.383a28.958,28.958,0,0,1-1.641-3.975,39.424,39.424,0,0,1,.315,5.364V142.6H480.8V121.4h5.237l3.849,7.257a26.755,26.755,0,0,1,1.767,4.038c-.126-1.262-.189-3.344-.189-4.733V121.4h5.174v21.2Z" transform="translate(-177.41 -90.67)"/>
        <path id="Path_30248" data-name="Path 30248" class="cls-2" d="M398.43,125.5a6.857,6.857,0,0,0-.189,3.092c.442,2.4,2.019,2.335,2.082,4.859l.063.063.063-.063a9.173,9.173,0,0,0,1.325-4.543,7.485,7.485,0,0,0-2.84-6.121v-.063H399a7.61,7.61,0,0,1,3.407,7.951,7,7,0,0,1-2.966,4.669,5.128,5.128,0,0,1-1.83.757v.126l.379.189h.126a10.845,10.845,0,0,1,4.417-1.578c.568-.063,1.767-.252,1.578-1.136l-.189-.947c-.063-.316.252-.442.379-.568.189-.252,0-.442-.189-.631v-.126c.252,0,.5-.252.442-.442-.126-.252-.5-.694-.126-1.136.189-.252.252-.252.568-.379a.394.394,0,0,0,.252-.631c-.568-.757-1.073-1.325-1.641-2.019-.252-.568.442-1.262-.189-1.956a10.9,10.9,0,0,0-6.689-3.471l-.126.126a2.751,2.751,0,0,0,1.073,1.578,2.925,2.925,0,0,1,.757,2.4" transform="translate(-146.341 -90.67)"/>
        <path id="Path_30249" data-name="Path 30249" class="cls-2" d="M399.736,145.226l-.063-.126a2.8,2.8,0,0,0-1.893.126,2.782,2.782,0,0,1-2.524-.5,6.551,6.551,0,0,0-2.524-1.7c-2.272-.82-2.966.631-5.174-.631h-.126v.063a8.838,8.838,0,0,0,3.218,3.471,7.593,7.593,0,0,0,6.689.568h.063v.063a7.436,7.436,0,0,1-8.519-1.01,6.979,6.979,0,0,1-2.524-4.922,6.659,6.659,0,0,1,.252-1.956l-.063-.063-.315.189-.063.126a15.026,15.026,0,0,1-1.2,6.058.692.692,0,0,0,.189.757c.252.252.442.189.757.316.252.063.379.5.442.631l.379.126h.063l.189.316.631.126c.189.316,0,.883.379,1.01a19.959,19.959,0,0,1,2.019-.189c.757.126,1.2.694,1.956.947a4.116,4.116,0,0,0,1.514.126,9.527,9.527,0,0,0,6.247-3.912" transform="translate(-142.031 -97.016)"/>
        <path id="Path_30250" data-name="Path 30250" class="cls-2" d="M378.1,137.935h.126a2.9,2.9,0,0,0,.82-1.7,2.8,2.8,0,0,1,1.7-1.956,6.938,6.938,0,0,0,2.713-1.388c1.83-1.578,1.01-2.9,3.155-4.228v-.126l-.063-.063a9.1,9.1,0,0,0-4.606,1.073A7.642,7.642,0,0,0,378.1,135.1l-.063.063-.063-.063a7.5,7.5,0,0,1,5.111-6.941,6.855,6.855,0,0,1,5.49.252,5.806,5.806,0,0,1,1.578,1.2l.063-.063v-.379l-.063-.126a10.965,10.965,0,0,1-3.6-3.092c-.316-.442-1.01-1.262-1.767-.82a1.238,1.238,0,0,0-.568.568.668.668,0,0,1-.82.063.483.483,0,0,0-.5.568l-.126.063a.473.473,0,0,0-.757,0c0,.189-.252.694-.568.442-.379-.316-.82-.316-1.01.063a20.137,20.137,0,0,1-1.01,1.956c-.379.5-1.641.947-1.83,1.641a12.326,12.326,0,0,0,.5,7.446" transform="translate(-139.202 -91.998)"/>
        <g id="Group_5443" data-name="Group 5443">
          <path id="Path_30251" data-name="Path 30251" class="cls-1" d="M20.823,78.369h-.694l-.189-.694a3.529,3.529,0,0,0-1.073-2.082,4.649,4.649,0,0,0-2.776-.568H11.737v14.7a17.774,17.774,0,0,0,.126,2.145,2.651,2.651,0,0,0,.442,1.2,2.006,2.006,0,0,0,.947.568,6.189,6.189,0,0,0,1.7.126v.757H5.868v-.757a10.434,10.434,0,0,0,1.7-.126,2.376,2.376,0,0,0,.947-.568,2.084,2.084,0,0,0,.442-1.2,17.774,17.774,0,0,0,.126-2.145v-14.7H4.733a4.518,4.518,0,0,0-2.776.568A4,4,0,0,0,.883,77.675l-.189.694H0L.316,73.7H20.508Z" transform="translate(0 -73.069)"/>
          <path id="Path_30252" data-name="Path 30252" class="cls-1" d="M42.871,94.154V93.4a5.524,5.524,0,0,0,1.262-.126,1.023,1.023,0,0,0,.694-.568,4.037,4.037,0,0,0,.316-1.2,21.035,21.035,0,0,0,.063-2.209V87.276a4.8,4.8,0,0,0-.631-2.713,2.225,2.225,0,0,0-1.893-1.01,3.542,3.542,0,0,0-2.461,1.01,3.6,3.6,0,0,0-1.136,2.587v2.272a21.034,21.034,0,0,0,.063,2.209,4.931,4.931,0,0,0,.252,1.2,1.129,1.129,0,0,0,.631.568,4.7,4.7,0,0,0,1.136.126v.757H34.1v-.757a7.443,7.443,0,0,0,1.388-.126,1.723,1.723,0,0,0,.757-.568,2.682,2.682,0,0,0,.379-1.2,16.928,16.928,0,0,0,.126-2.145V78.379a16.927,16.927,0,0,0-.126-2.145,2.983,2.983,0,0,0-.379-1.2,1.723,1.723,0,0,0-.757-.568,4.317,4.317,0,0,0-1.388-.126v-.757l4.985-.883V84.5a7.43,7.43,0,0,1,1.956-1.767,4.092,4.092,0,0,1,2.4-.694,3.587,3.587,0,0,1,3.155,1.388,6.728,6.728,0,0,1,.947,3.786v2.209a17.773,17.773,0,0,0,.126,2.145,2.682,2.682,0,0,0,.379,1.2,1.723,1.723,0,0,0,.757.568,4.317,4.317,0,0,0,1.388.126v.757h-7.32Z" transform="translate(-12.582 -72.7)"/>
          <path id="Path_30253" data-name="Path 30253" class="cls-1" d="M62.824,94.026A5.364,5.364,0,0,0,63.9,97.433,4.021,4.021,0,0,0,67.178,98.7a4.549,4.549,0,0,0,1.893-.442,6.09,6.09,0,0,0,1.767-1.136l.631.757A6.79,6.79,0,0,1,69.2,99.515a6.551,6.551,0,0,1-2.776.631,6.351,6.351,0,0,1-2.461-.5A5.3,5.3,0,0,1,62,98.253a5.762,5.762,0,0,1-1.262-2.082A6.538,6.538,0,0,1,60.3,93.71a6.67,6.67,0,0,1,.5-2.524,6.408,6.408,0,0,1,1.388-2.019,6.7,6.7,0,0,1,1.956-1.325,5.82,5.82,0,0,1,2.272-.442A4.738,4.738,0,0,1,69.7,88.662a3.825,3.825,0,0,1,1.388,3.029,4.288,4.288,0,0,1-.189,1.2H62.887C62.887,93.268,62.824,93.647,62.824,94.026Zm5.805-2.4A2.242,2.242,0,0,0,68.756,91a2.051,2.051,0,0,0-.631-1.514,2.368,2.368,0,0,0-1.893-.631,2.783,2.783,0,0,0-1.893.757,4.328,4.328,0,0,0-1.2,2.019Z" transform="translate(-22.25 -78.124)"/>
          <path id="Path_30254" data-name="Path 30254" class="cls-1" d="M103.772,75.341a5.428,5.428,0,0,1,1.893,4.228,5.212,5.212,0,0,1-1.893,4.165,7.884,7.884,0,0,1-5.237,1.641H95.568v4.354a16.927,16.927,0,0,0,.126,2.145,2.976,2.976,0,0,0,.442,1.2,1.733,1.733,0,0,0,.947.568,6.19,6.19,0,0,0,1.7.126v.757H89.7v-.757a10.434,10.434,0,0,0,1.7-.126,1.8,1.8,0,0,0,.883-.568,2.651,2.651,0,0,0,.442-1.2,16.928,16.928,0,0,0,.126-2.145v-11.3a16.928,16.928,0,0,0-.126-2.145,2.376,2.376,0,0,0-.442-1.136,1.8,1.8,0,0,0-.883-.568,6.19,6.19,0,0,0-1.7-.126V73.7h8.771A7.948,7.948,0,0,1,103.772,75.341Zm-2.145,7.509a5.124,5.124,0,0,0,1.073-3.281,5,5,0,0,0-1.073-3.281,3.757,3.757,0,0,0-3.155-1.262h-2.9v9.15h2.9A3.876,3.876,0,0,0,101.626,82.85Z" transform="translate(-33.098 -73.069)"/>
          <path id="Path_30255" data-name="Path 30255" class="cls-1" d="M127.19,90.707a1.146,1.146,0,0,1-1.01.5,1.111,1.111,0,0,1-.82-.379,1.246,1.246,0,0,1-.379-.883c0-.757-.379-1.136-1.073-1.136a2.3,2.3,0,0,0-1.641,1.136,4.739,4.739,0,0,0-.883,2.966v1.893a16.927,16.927,0,0,0,.126,2.145,2.983,2.983,0,0,0,.379,1.2,1.723,1.723,0,0,0,.757.568,4.118,4.118,0,0,0,1.388.126V99.6H116.4v-.757a8.036,8.036,0,0,0,1.388-.126,1.723,1.723,0,0,0,.757-.568,2.682,2.682,0,0,0,.379-1.2,17.775,17.775,0,0,0,.126-2.145V93.042a17.775,17.775,0,0,0-.126-2.145,2.983,2.983,0,0,0-.379-1.2,1.723,1.723,0,0,0-.757-.568A4.317,4.317,0,0,0,116.4,89v-.757l4.417-.883a8.423,8.423,0,0,1,.316,1.073c.126.568.189,1.01.252,1.388a4.468,4.468,0,0,1,1.514-1.767,3.356,3.356,0,0,1,2.019-.757,2.733,2.733,0,0,1,1.956.694,2.1,2.1,0,0,1,.694,1.451A2.988,2.988,0,0,1,127.19,90.707Z" transform="translate(-42.95 -78.087)"/>
          <path id="Path_30256" data-name="Path 30256" class="cls-1" d="M135.7,95.815v-.757a8.035,8.035,0,0,0,1.388-.126,1.723,1.723,0,0,0,.757-.568,2.682,2.682,0,0,0,.379-1.2,17.775,17.775,0,0,0,.126-2.145V89.252a17.775,17.775,0,0,0-.126-2.145,2.983,2.983,0,0,0-.379-1.2,1.723,1.723,0,0,0-.757-.568,4.118,4.118,0,0,0-1.388-.126v-.757l4.985-.883v7.383a16.929,16.929,0,0,0,.126,2.145,2.983,2.983,0,0,0,.379,1.2,1.723,1.723,0,0,0,.757.568,4.118,4.118,0,0,0,1.388.126v.757H135.7Zm4.8-15.965a1.344,1.344,0,0,1-1.01.442,1.256,1.256,0,0,1-1.01-.442,1.521,1.521,0,0,1-.442-1.136,1.384,1.384,0,0,1,.442-1.073,1.344,1.344,0,0,1,1.01-.442,1.256,1.256,0,0,1,1.01.442,1.384,1.384,0,0,1,.442,1.073A1.521,1.521,0,0,1,140.5,79.85Z" transform="translate(-50.072 -74.36)"/>
          <path id="Path_30257" data-name="Path 30257" class="cls-1" d="M156.341,88.157a4.666,4.666,0,0,1,2.65-.757,3.746,3.746,0,0,1,3.218,1.451,6.2,6.2,0,0,1,1.073,3.723v2.209a16.929,16.929,0,0,0,.126,2.145,2.983,2.983,0,0,0,.379,1.2,1.723,1.723,0,0,0,.757.568,4.118,4.118,0,0,0,1.388.126v.757H158.3v-.757a8.036,8.036,0,0,0,1.388-.126,1.723,1.723,0,0,0,.757-.568,2.682,2.682,0,0,0,.379-1.2,17.772,17.772,0,0,0,.126-2.145V92.764a4.219,4.219,0,0,0-.694-2.713,2.365,2.365,0,0,0-2.082-.947,3.8,3.8,0,0,0-2.587,1.073,3.1,3.1,0,0,0-1.2,2.461v2.272a21.036,21.036,0,0,0,.063,2.209,4.665,4.665,0,0,0,.316,1.2,1.27,1.27,0,0,0,.694.568,5.99,5.99,0,0,0,1.262.126v.757H149.4v-.757a8.036,8.036,0,0,0,1.388-.126,1.723,1.723,0,0,0,.757-.568,2.682,2.682,0,0,0,.379-1.2,17.775,17.775,0,0,0,.126-2.145V93.205a17.775,17.775,0,0,0-.126-2.145,2.983,2.983,0,0,0-.379-1.2,1.723,1.723,0,0,0-.757-.568,4.118,4.118,0,0,0-1.388-.126V88.41l4.417-.883a8.424,8.424,0,0,1,.316,1.073c.126.568.189,1.01.252,1.388A7.684,7.684,0,0,1,156.341,88.157Z" transform="translate(-55.127 -78.124)"/>
          <path id="Path_30258" data-name="Path 30258" class="cls-1" d="M180.1,90.187a7.725,7.725,0,0,0-.947,3.975,5.107,5.107,0,0,0,1.01,3.407,3.765,3.765,0,0,0,3.029,1.262,4.09,4.09,0,0,0,1.83-.442,6.261,6.261,0,0,0,1.767-1.2l.568.757a7.671,7.671,0,0,1-2.272,1.7,6.825,6.825,0,0,1-2.713.631,5.655,5.655,0,0,1-4.291-1.7,6.065,6.065,0,0,1-1.578-4.354,7.679,7.679,0,0,1,.5-2.713,6.975,6.975,0,0,1,1.388-2.145,5.664,5.664,0,0,1,1.956-1.325,5.566,5.566,0,0,1,4.985.316,2.1,2.1,0,0,1,1.01,1.767,1.547,1.547,0,0,1-.379,1.01,1.35,1.35,0,0,1-1.136.442,1.146,1.146,0,0,1-.883-.379,1.332,1.332,0,0,1-.379-1.01,1.543,1.543,0,0,0-.379-1.136,1.111,1.111,0,0,0-.82-.379A2.577,2.577,0,0,0,180.1,90.187Z" transform="translate(-65.126 -78.198)"/>
          <path id="Path_30259" data-name="Path 30259" class="cls-1" d="M197.387,94.026a5.364,5.364,0,0,0,1.073,3.407,4.021,4.021,0,0,0,3.281,1.262,4.549,4.549,0,0,0,1.893-.442,6.09,6.09,0,0,0,1.767-1.136l.568.757a6.79,6.79,0,0,1-2.272,1.641,6.551,6.551,0,0,1-2.776.631,6.351,6.351,0,0,1-2.461-.5,5.3,5.3,0,0,1-1.956-1.388,5.762,5.762,0,0,1-1.262-2.082,6.538,6.538,0,0,1-.442-2.461,6.67,6.67,0,0,1,.5-2.524,6.408,6.408,0,0,1,1.388-2.019,6.7,6.7,0,0,1,1.956-1.325,5.82,5.82,0,0,1,2.272-.442,4.738,4.738,0,0,1,3.281,1.262,3.825,3.825,0,0,1,1.388,3.029,4.288,4.288,0,0,1-.189,1.2H197.45C197.45,93.268,197.387,93.647,197.387,94.026Zm5.805-2.4a2.242,2.242,0,0,0,.126-.631,2.051,2.051,0,0,0-.631-1.514,2.368,2.368,0,0,0-1.893-.631,2.783,2.783,0,0,0-1.893.757,4.328,4.328,0,0,0-1.2,2.019Z" transform="translate(-71.879 -78.124)"/>
          <path id="Path_30260" data-name="Path 30260" class="cls-1" d="M222,99.174a4.066,4.066,0,0,1-2.84,1.073,3.057,3.057,0,0,1-1.136-.189,4.777,4.777,0,0,1-1.136-.568,2.061,2.061,0,0,0-.82-.379q-.379,0-.379,1.136H215V95.2h.694a4.238,4.238,0,0,0,1.01,2.65,3.349,3.349,0,0,0,2.65,1.262,2.036,2.036,0,0,0,1.325-.5,1.539,1.539,0,0,0,.5-1.262,1.521,1.521,0,0,0-.442-1.136,5.263,5.263,0,0,0-1.388-1.01l-1.83-1.073a4.6,4.6,0,0,1-1.7-1.578,3.653,3.653,0,0,1-.568-1.893,2.933,2.933,0,0,1,1.01-2.272,3.331,3.331,0,0,1,2.4-.883,4.2,4.2,0,0,1,1.325.189,4.884,4.884,0,0,1,1.01.442,1.1,1.1,0,0,0,.442.189c.126,0,.252-.252.252-.82h.694v4.038h-.694a2.976,2.976,0,0,0-.757-2.019,2.492,2.492,0,0,0-1.956-.883q-1.7,0-1.7,1.514a1.255,1.255,0,0,0,.442,1.01,8.2,8.2,0,0,0,1.578,1.073l1.578.883a5.052,5.052,0,0,1,1.7,1.514,3.288,3.288,0,0,1,.568,1.83A3.572,3.572,0,0,1,222,99.174Z" transform="translate(-79.332 -78.161)"/>
          <path id="Path_30261" data-name="Path 30261" class="cls-1" d="M237.5,99.174a4.066,4.066,0,0,1-2.84,1.073,3.057,3.057,0,0,1-1.136-.189,4.778,4.778,0,0,1-1.136-.568,2.061,2.061,0,0,0-.82-.379q-.379,0-.379,1.136H230.5V95.2h.694a4.238,4.238,0,0,0,1.01,2.65,3.349,3.349,0,0,0,2.65,1.262,2.036,2.036,0,0,0,1.325-.5,1.539,1.539,0,0,0,.5-1.262,1.521,1.521,0,0,0-.442-1.136,5.263,5.263,0,0,0-1.388-1.01l-1.83-1.073a4.6,4.6,0,0,1-1.7-1.578,3.653,3.653,0,0,1-.568-1.893,2.933,2.933,0,0,1,1.01-2.272,3.331,3.331,0,0,1,2.4-.883,4.2,4.2,0,0,1,1.325.189,4.884,4.884,0,0,1,1.01.442,1.642,1.642,0,0,0,.442.189c.126,0,.252-.252.252-.82h.694v4.038h-.757a2.976,2.976,0,0,0-.757-2.019,2.493,2.493,0,0,0-1.956-.883q-1.7,0-1.7,1.514a1.256,1.256,0,0,0,.442,1.01,8.2,8.2,0,0,0,1.578,1.073l1.578.883a5.052,5.052,0,0,1,1.7,1.514,3.647,3.647,0,0,1-.5,4.543Z" transform="translate(-85.052 -78.161)"/>
          <path id="Path_30262" data-name="Path 30262" class="cls-1" d="M259.354,89.728a17.771,17.771,0,0,0,.126,2.145,2.651,2.651,0,0,0,.442,1.2,2.005,2.005,0,0,0,.947.568,6.19,6.19,0,0,0,1.7.126v.757H255v-.757a10.435,10.435,0,0,0,1.7-.126,2.376,2.376,0,0,0,.947-.568,2.651,2.651,0,0,0,.442-1.2,16.931,16.931,0,0,0,.126-2.145v-11.3a16.931,16.931,0,0,0-.126-2.145,2.376,2.376,0,0,0-.442-1.136,1.733,1.733,0,0,0-.947-.568,6.19,6.19,0,0,0-1.7-.126V73.7h5.679l7.067,16.911,7-16.911h5.237v.757a10.434,10.434,0,0,0-1.7.126,2.005,2.005,0,0,0-.947.568,2.375,2.375,0,0,0-.442,1.136,16.931,16.931,0,0,0-.126,2.145v11.3a16.931,16.931,0,0,0,.126,2.145,2.976,2.976,0,0,0,.442,1.2,1.733,1.733,0,0,0,.947.568,6.684,6.684,0,0,0,1.7.126v.757h-8.96v-.757a10.435,10.435,0,0,0,1.7-.126,2.376,2.376,0,0,0,.947-.568,2.651,2.651,0,0,0,.442-1.2,16.924,16.924,0,0,0,.126-2.145v-11.3L267.3,95.154h-.442L259.48,77.423v12.3Z" transform="translate(-94.092 -73.069)"/>
          <path id="Path_30263" data-name="Path 30263" class="cls-1" d="M306.365,99.92a2.092,2.092,0,0,1-2.272-2.019,9.613,9.613,0,0,1-2.145,1.578,4.553,4.553,0,0,1-2.019.5,2.95,2.95,0,0,1-2.145-.82,2.8,2.8,0,0,1-.883-2.145,3.339,3.339,0,0,1,.568-1.893,4.593,4.593,0,0,1,1.514-1.388,10.12,10.12,0,0,1,2.209-.947,25.455,25.455,0,0,1,2.776-.694,5.958,5.958,0,0,0-.442-2.84,2.189,2.189,0,0,0-3.029-.379,1.367,1.367,0,0,0-.631,1.2,1.508,1.508,0,0,1-.315.883,1.111,1.111,0,0,1-.82.379,1.018,1.018,0,0,1-.82-.379,1.1,1.1,0,0,1-.315-.883,2.425,2.425,0,0,1,1.262-2.019,5.761,5.761,0,0,1,2.966-.757,4.5,4.5,0,0,1,3.471,1.136,5.209,5.209,0,0,1,1.073,3.6V97.27q0,1.325.757,1.325a1.95,1.95,0,0,0,.5-.126,2.743,2.743,0,0,0,.442-.379l.442.631A2.48,2.48,0,0,1,306.365,99.92Zm-2.335-6.689c-3.029.757-4.606,1.893-4.606,3.407a1.719,1.719,0,0,0,.442,1.262,1.58,1.58,0,0,0,1.136.5,3.37,3.37,0,0,0,1.262-.316,13.957,13.957,0,0,0,1.767-1.325Z" transform="translate(-109.553 -78.087)"/>
          <path id="Path_30264" data-name="Path 30264" class="cls-1" d="M327.69,90.707a1.146,1.146,0,0,1-1.01.5,1.111,1.111,0,0,1-.82-.379,1.246,1.246,0,0,1-.379-.883c0-.757-.379-1.136-1.073-1.136a2.3,2.3,0,0,0-1.641,1.136,4.739,4.739,0,0,0-.883,2.966v1.893a16.932,16.932,0,0,0,.126,2.145,2.983,2.983,0,0,0,.379,1.2,1.723,1.723,0,0,0,.757.568,4.118,4.118,0,0,0,1.388.126V99.6H316.9v-.757a8.036,8.036,0,0,0,1.388-.126,1.723,1.723,0,0,0,.757-.568,2.682,2.682,0,0,0,.379-1.2,17.771,17.771,0,0,0,.126-2.145V93.042a17.771,17.771,0,0,0-.126-2.145,2.983,2.983,0,0,0-.379-1.2,1.723,1.723,0,0,0-.757-.568A4.317,4.317,0,0,0,316.9,89v-.757l4.417-.883a8.425,8.425,0,0,1,.316,1.073c.126.568.189,1.01.252,1.388a4.468,4.468,0,0,1,1.514-1.767,3.356,3.356,0,0,1,2.019-.757,2.733,2.733,0,0,1,1.956.694,2.1,2.1,0,0,1,.694,1.451A2.3,2.3,0,0,1,327.69,90.707Z" transform="translate(-116.932 -78.087)"/>
          <path id="Path_30265" data-name="Path 30265" class="cls-1" d="M338.5,99.3a10.19,10.19,0,0,0,2.082.379,8.3,8.3,0,0,1,4.669,1.514,3.825,3.825,0,0,1,1.388,3.029,4.129,4.129,0,0,1-1.7,3.407,7,7,0,0,1-4.228,1.262,7.623,7.623,0,0,1-4.228-1.073,3.1,3.1,0,0,1-1.578-2.587q0-1.7,2.082-2.84l.631.379a3.722,3.722,0,0,0-1.073,2.272,2.046,2.046,0,0,0,1.325,1.83,6.355,6.355,0,0,0,2.9.694,5.693,5.693,0,0,0,2.9-.757,2.255,2.255,0,0,0,1.262-1.956,1.711,1.711,0,0,0-1.073-1.641,9.351,9.351,0,0,0-3.344-.757,7.075,7.075,0,0,1-3.471-1.01,2.49,2.49,0,0,1-1.262-2.209,2.124,2.124,0,0,1,.757-1.641,5.431,5.431,0,0,1,2.082-1.136,5.473,5.473,0,0,1-2.019-1.767,4.35,4.35,0,0,1-.757-2.461,4.539,4.539,0,0,1,1.451-3.344,4.76,4.76,0,0,1,3.471-1.388,4.818,4.818,0,0,1,3.407,1.325,3.631,3.631,0,0,1,1.2-.947A3.05,3.05,0,0,1,346.7,87.5a1.9,1.9,0,0,1,1.451.568,1.876,1.876,0,0,1,.5,1.262,1.006,1.006,0,0,1-.252.757,1.073,1.073,0,0,1-.631.379,1.134,1.134,0,0,1-.694-.189,2.2,2.2,0,0,1-.379-.568,2.2,2.2,0,0,0-.379-.568.838.838,0,0,0-.631-.189,1.4,1.4,0,0,0-1.01.568,4.528,4.528,0,0,1,.947,2.84,4.343,4.343,0,0,1-1.325,3.155,5.444,5.444,0,0,1-3.029,1.578q-.757.095-1.325.189a7.336,7.336,0,0,0-1.136.252,3.3,3.3,0,0,0-.947.442.763.763,0,0,0-.379.568C337.55,98.8,337.866,99.111,338.5,99.3Zm3.912-9.718a2.091,2.091,0,0,0-1.767-1.01,1.894,1.894,0,0,0-1.767,1.01,5.619,5.619,0,0,0,0,5.174,1.959,1.959,0,0,0,1.767,1.01,1.894,1.894,0,0,0,1.767-1.01,5.047,5.047,0,0,0,.631-2.587A4.493,4.493,0,0,0,342.409,89.582Z" transform="translate(-123.574 -78.161)"/>
          <path id="Path_30266" data-name="Path 30266" class="cls-1" d="M366.365,99.92a2.092,2.092,0,0,1-2.272-2.019,9.614,9.614,0,0,1-2.145,1.578,4.553,4.553,0,0,1-2.019.5,2.95,2.95,0,0,1-2.145-.82,2.8,2.8,0,0,1-.883-2.145,3.339,3.339,0,0,1,.568-1.893,4.593,4.593,0,0,1,1.514-1.388,10.121,10.121,0,0,1,2.209-.947,25.454,25.454,0,0,1,2.776-.694,5.958,5.958,0,0,0-.442-2.84,2.189,2.189,0,0,0-3.029-.379,1.367,1.367,0,0,0-.631,1.2,1.508,1.508,0,0,1-.316.883,1.111,1.111,0,0,1-.82.379,1.018,1.018,0,0,1-.82-.379,1.1,1.1,0,0,1-.315-.883,2.425,2.425,0,0,1,1.262-2.019,5.761,5.761,0,0,1,2.966-.757,4.5,4.5,0,0,1,3.471,1.136,5.209,5.209,0,0,1,1.073,3.6V97.27q0,1.325.757,1.325a1.951,1.951,0,0,0,.5-.126,2.745,2.745,0,0,0,.442-.379l.442.631A2.411,2.411,0,0,1,366.365,99.92Zm-2.335-6.689c-3.092.757-4.606,1.893-4.606,3.407a1.719,1.719,0,0,0,.442,1.262,1.58,1.58,0,0,0,1.136.5,3.37,3.37,0,0,0,1.262-.316,13.957,13.957,0,0,0,1.767-1.325Z" transform="translate(-131.692 -78.087)"/>
          <path id="Path_30267" data-name="Path 30267" class="cls-1" d="M387.79,90.707a1.146,1.146,0,0,1-1.01.5,1.111,1.111,0,0,1-.82-.379,1.246,1.246,0,0,1-.379-.883c0-.757-.379-1.136-1.073-1.136a2.3,2.3,0,0,0-1.641,1.136,4.739,4.739,0,0,0-.883,2.966v1.893a16.925,16.925,0,0,0,.126,2.145,2.983,2.983,0,0,0,.379,1.2,1.723,1.723,0,0,0,.757.568,4.118,4.118,0,0,0,1.388.126V99.6H377v-.757a8.036,8.036,0,0,0,1.388-.126,1.723,1.723,0,0,0,.757-.568,2.682,2.682,0,0,0,.379-1.2,17.771,17.771,0,0,0,.126-2.145V93.042a17.771,17.771,0,0,0-.126-2.145,2.983,2.983,0,0,0-.379-1.2,1.723,1.723,0,0,0-.757-.568A4.118,4.118,0,0,0,377,89v-.757l4.417-.883a8.425,8.425,0,0,1,.316,1.073c.126.568.189,1.01.252,1.388a4.468,4.468,0,0,1,1.514-1.767,3.356,3.356,0,0,1,2.019-.757,2.733,2.733,0,0,1,1.956.694,2.1,2.1,0,0,1,.694,1.451A2.988,2.988,0,0,1,387.79,90.707Z" transform="translate(-139.109 -78.087)"/>
          <path id="Path_30268" data-name="Path 30268" class="cls-1" d="M398.587,94.026a5.364,5.364,0,0,0,1.073,3.407,4.021,4.021,0,0,0,3.281,1.262,4.549,4.549,0,0,0,1.893-.442,6.09,6.09,0,0,0,1.767-1.136l.568.757a6.79,6.79,0,0,1-2.272,1.641,6.552,6.552,0,0,1-2.776.631,6.351,6.351,0,0,1-2.461-.5,5.3,5.3,0,0,1-1.956-1.388,5.762,5.762,0,0,1-1.262-2.082A6.538,6.538,0,0,1,396,93.71a6.67,6.67,0,0,1,.5-2.524,6.408,6.408,0,0,1,1.388-2.019,6.7,6.7,0,0,1,1.956-1.325,5.82,5.82,0,0,1,2.272-.442,4.738,4.738,0,0,1,3.281,1.262,3.825,3.825,0,0,1,1.388,3.029,4.287,4.287,0,0,1-.189,1.2h-8.014Zm5.805-2.4a2.242,2.242,0,0,0,.126-.631,2.051,2.051,0,0,0-.631-1.514,2.456,2.456,0,0,0-1.893-.631,2.783,2.783,0,0,0-1.893.757,4.328,4.328,0,0,0-1.2,2.019Z" transform="translate(-146.119 -78.124)"/>
          <path id="Path_30269" data-name="Path 30269" class="cls-1" d="M414.9,87.385v-.82a3.038,3.038,0,0,0,2.082-1.325,6.555,6.555,0,0,0,.883-2.84H419v3.849h2.9v1.2H419v7c0,1.7.5,2.524,1.514,2.524a3.256,3.256,0,0,0,2.145-1.2l.568.568a4.759,4.759,0,0,1-1.7,1.451,3.617,3.617,0,0,1-1.83.568,2.906,2.906,0,0,1-2.272-.947,4.382,4.382,0,0,1-.82-2.966V87.385Z" transform="translate(-153.093 -76.279)"/>
          <path id="Path_30270" data-name="Path 30270" class="cls-1" d="M20.842,142.05a4.227,4.227,0,0,0-.442-1.136,3.139,3.139,0,0,0-.694-.82,9.6,9.6,0,0,1-2.9,2.209,7.563,7.563,0,0,1-3.281.757,10.092,10.092,0,0,1-3.912-.82,10.245,10.245,0,0,1-3.281-2.4,10.785,10.785,0,0,1-2.209-3.534,12,12,0,0,1-.82-4.228,10.74,10.74,0,0,1,.82-4.228,10.785,10.785,0,0,1,2.209-3.534,10.245,10.245,0,0,1,3.281-2.4,9.265,9.265,0,0,1,3.912-.82,7.363,7.363,0,0,1,3.281.757,9.6,9.6,0,0,1,2.9,2.209,2.279,2.279,0,0,0,.694-.82,4.228,4.228,0,0,0,.442-1.136h.694v7.635h-.694a10,10,0,0,0-2.587-5.3,6.293,6.293,0,0,0-4.606-1.956,6.647,6.647,0,0,0-3.281.82A6.526,6.526,0,0,0,8.1,125.58a10.662,10.662,0,0,0-1.262,3.155,15.523,15.523,0,0,0,0,6.815A10.29,10.29,0,0,0,8.1,138.642a6.526,6.526,0,0,0,2.272,2.272,6.187,6.187,0,0,0,3.281.82,6.061,6.061,0,0,0,4.606-1.956,10.481,10.481,0,0,0,2.587-5.3h.694v7.635h-.694Z" transform="translate(-1.218 -90.559)"/>
          <path id="Path_30271" data-name="Path 30271" class="cls-1" d="M45.865,148.12a2.092,2.092,0,0,1-2.272-2.019,9.614,9.614,0,0,1-2.145,1.578,4.553,4.553,0,0,1-2.019.5,2.95,2.95,0,0,1-2.145-.82,2.8,2.8,0,0,1-.883-2.145,3.339,3.339,0,0,1,.568-1.893,4.593,4.593,0,0,1,1.514-1.388,10.119,10.119,0,0,1,2.209-.947,25.46,25.46,0,0,1,2.776-.694,5.958,5.958,0,0,0-.442-2.84A2.189,2.189,0,0,0,40,137.078a1.367,1.367,0,0,0-.631,1.2,1.508,1.508,0,0,1-.316.883,1.111,1.111,0,0,1-.82.379,1.017,1.017,0,0,1-.82-.379,1.1,1.1,0,0,1-.316-.883,2.425,2.425,0,0,1,1.262-2.019,5.761,5.761,0,0,1,2.966-.757,4.5,4.5,0,0,1,3.471,1.136,5.209,5.209,0,0,1,1.073,3.6v5.237q0,1.325.757,1.325a1.951,1.951,0,0,0,.5-.126,2.744,2.744,0,0,0,.442-.379l.442.631A2.55,2.55,0,0,1,45.865,148.12Zm-2.335-6.689c-3.029.757-4.606,1.893-4.606,3.407a1.719,1.719,0,0,0,.442,1.262,1.58,1.58,0,0,0,1.136.5,2.615,2.615,0,0,0,1.262-.379A13.956,13.956,0,0,0,43.53,144.9Z" transform="translate(-13.431 -95.872)"/>
          <path id="Path_30272" data-name="Path 30272" class="cls-1" d="M63.441,136.357a4.666,4.666,0,0,1,2.65-.757,3.746,3.746,0,0,1,3.218,1.451,6.2,6.2,0,0,1,1.073,3.723v2.209a16.928,16.928,0,0,0,.126,2.145,2.984,2.984,0,0,0,.379,1.2,1.723,1.723,0,0,0,.757.568,4.119,4.119,0,0,0,1.388.126v.757H65.4v-.757a8.037,8.037,0,0,0,1.388-.126,1.723,1.723,0,0,0,.757-.568,2.682,2.682,0,0,0,.379-1.2,17.775,17.775,0,0,0,.126-2.145v-2.019a4.643,4.643,0,0,0-.694-2.713,2.365,2.365,0,0,0-2.082-.947,3.8,3.8,0,0,0-2.587,1.073,3.1,3.1,0,0,0-1.2,2.461v2.272a21.035,21.035,0,0,0,.063,2.209,4.665,4.665,0,0,0,.316,1.2,1.27,1.27,0,0,0,.694.568,5.989,5.989,0,0,0,1.262.126v.757H56.5v-.757a8.036,8.036,0,0,0,1.388-.126,1.723,1.723,0,0,0,.757-.568,2.682,2.682,0,0,0,.379-1.2,17.774,17.774,0,0,0,.126-2.145v-1.767a17.773,17.773,0,0,0-.126-2.145,2.983,2.983,0,0,0-.379-1.2,1.723,1.723,0,0,0-.757-.568,4.118,4.118,0,0,0-1.388-.126v-.883l4.417-.883a8.425,8.425,0,0,1,.316,1.073c.126.568.189,1.01.252,1.388A7.46,7.46,0,0,1,63.441,136.357Z" transform="translate(-20.848 -95.909)"/>
          <path id="Path_30273" data-name="Path 30273" class="cls-1" d="M87.2,138.387a7.725,7.725,0,0,0-.947,3.975,5.107,5.107,0,0,0,1.01,3.407,3.765,3.765,0,0,0,3.029,1.262,4.09,4.09,0,0,0,1.83-.442,6.261,6.261,0,0,0,1.767-1.2l.568.757a7.671,7.671,0,0,1-2.272,1.7,6.824,6.824,0,0,1-2.713.631,5.655,5.655,0,0,1-4.291-1.7,6.065,6.065,0,0,1-1.578-4.354,7.679,7.679,0,0,1,.5-2.713,6.974,6.974,0,0,1,1.388-2.145,6.7,6.7,0,0,1,1.956-1.325,5.566,5.566,0,0,1,4.985.316,2.1,2.1,0,0,1,1.01,1.767,1.547,1.547,0,0,1-.379,1.01,1.35,1.35,0,0,1-1.136.442,1.391,1.391,0,0,1-.947-.379,1.332,1.332,0,0,1-.379-1.01,1.543,1.543,0,0,0-.379-1.136,1.111,1.111,0,0,0-.82-.379A2.332,2.332,0,0,0,87.2,138.387Z" transform="translate(-30.847 -95.983)"/>
          <path id="Path_30274" data-name="Path 30274" class="cls-1" d="M104.524,142.226a5.364,5.364,0,0,0,1.073,3.407,4.021,4.021,0,0,0,3.281,1.262,4.549,4.549,0,0,0,1.893-.442,6.09,6.09,0,0,0,1.767-1.136l.631.757a7.491,7.491,0,0,1-2.272,1.641,6.551,6.551,0,0,1-2.776.631,6.351,6.351,0,0,1-2.461-.5,5.3,5.3,0,0,1-1.956-1.388,5.762,5.762,0,0,1-1.262-2.082A6.32,6.32,0,0,1,102,141.91a6.67,6.67,0,0,1,.5-2.524,6.408,6.408,0,0,1,1.388-2.019,6.7,6.7,0,0,1,1.956-1.325,5.82,5.82,0,0,1,2.272-.442,4.738,4.738,0,0,1,3.281,1.262,3.825,3.825,0,0,1,1.388,3.029,4.288,4.288,0,0,1-.189,1.2h-8.014A6.859,6.859,0,0,0,104.524,142.226Zm5.805-2.4a2.242,2.242,0,0,0,.126-.631,2.051,2.051,0,0,0-.631-1.514,2.456,2.456,0,0,0-1.893-.631,2.783,2.783,0,0,0-1.893.757,4.328,4.328,0,0,0-1.2,2.019Z" transform="translate(-37.637 -95.909)"/>
          <path id="Path_30275" data-name="Path 30275" class="cls-1" d="M132.29,138.907a1.146,1.146,0,0,1-1.01.5,1.111,1.111,0,0,1-.82-.379,1.246,1.246,0,0,1-.379-.883c0-.757-.379-1.136-1.073-1.136a2.305,2.305,0,0,0-1.641,1.136,4.739,4.739,0,0,0-.883,2.966v1.893a16.928,16.928,0,0,0,.126,2.145,2.983,2.983,0,0,0,.379,1.2,1.723,1.723,0,0,0,.757.568,4.118,4.118,0,0,0,1.388.126v.757H121.5v-.757a8.036,8.036,0,0,0,1.388-.126,1.723,1.723,0,0,0,.757-.568,2.682,2.682,0,0,0,.379-1.2,17.775,17.775,0,0,0,.126-2.145v-1.767a17.775,17.775,0,0,0-.126-2.145,2.983,2.983,0,0,0-.379-1.2,1.723,1.723,0,0,0-.757-.568,4.317,4.317,0,0,0-1.388-.126v-.757l4.417-.883a8.426,8.426,0,0,1,.316,1.073c.126.568.189,1.01.252,1.388A4.468,4.468,0,0,1,128,136.257a3.357,3.357,0,0,1,2.019-.757,2.733,2.733,0,0,1,1.956.694,2.1,2.1,0,0,1,.694,1.451A2.3,2.3,0,0,1,132.29,138.907Z" transform="translate(-44.832 -95.872)"/>
          <path id="Path_30276" data-name="Path 30276" class="cls-1" d="M155.805,131.123h1.641a16.6,16.6,0,0,0,2.082-.126,2.376,2.376,0,0,0,1.136-.442,1.541,1.541,0,0,0,.5-.947,6.96,6.96,0,0,0,.126-1.767h.694v7.951h-.631a11.36,11.36,0,0,0-.126-1.767,1.689,1.689,0,0,0-.5-.947,2.376,2.376,0,0,0-1.136-.442,16.6,16.6,0,0,0-2.082-.126h-1.641v5.616a16.928,16.928,0,0,0,.126,2.145,2.976,2.976,0,0,0,.442,1.2,1.733,1.733,0,0,0,.947.568,6.19,6.19,0,0,0,1.7.126v.757H150v-.757a10.435,10.435,0,0,0,1.7-.126,2.376,2.376,0,0,0,.947-.568,2.651,2.651,0,0,0,.442-1.2,16.925,16.925,0,0,0,.126-2.145v-11.3a16.928,16.928,0,0,0-.126-2.145,2.376,2.376,0,0,0-.442-1.136,1.733,1.733,0,0,0-.947-.568,6.19,6.19,0,0,0-1.7-.126V122.1h15.712l.252,4.606h-.694l-.189-.694a4,4,0,0,0-1.01-2.082,4.649,4.649,0,0,0-2.776-.568h-5.49v7.761Z" transform="translate(-55.348 -90.928)"/>
          <path id="Path_30277" data-name="Path 30277" class="cls-1" d="M186.273,144.434a6.547,6.547,0,0,1-1.451,2.082,5.988,5.988,0,0,1-2.145,1.388,6.882,6.882,0,0,1-5.174,0,5.988,5.988,0,0,1-2.145-1.388,5.918,5.918,0,0,1-1.451-2.082,6.351,6.351,0,0,1-.5-2.461,5.983,5.983,0,0,1,1.956-4.48A6.975,6.975,0,0,1,177.5,136.1a6.882,6.882,0,0,1,5.174,0,5.988,5.988,0,0,1,2.145,1.388,6.594,6.594,0,0,1,1.451,2.019,6.251,6.251,0,0,1,0,4.922Zm-3.218-6.058a3.459,3.459,0,0,0-2.966-1.388,3.356,3.356,0,0,0-2.966,1.451,6.912,6.912,0,0,0,0,7.194,3.509,3.509,0,0,0,2.966,1.451,3.313,3.313,0,0,0,2.966-1.388,7.138,7.138,0,0,0,0-7.32Z" transform="translate(-63.983 -95.909)"/>
          <path id="Path_30278" data-name="Path 30278" class="cls-1" d="M206.637,148.715c-.063-.189-.126-.5-.252-.947-.126-.5-.189-.883-.252-1.262a8.058,8.058,0,0,1-1.956,1.514,4.83,4.83,0,0,1-2.461.694,3.587,3.587,0,0,1-3.155-1.388,6.725,6.725,0,0,1-1.01-3.786v-2.209a16.928,16.928,0,0,0-.126-2.145,2.983,2.983,0,0,0-.379-1.2,1.723,1.723,0,0,0-.757-.568,4.317,4.317,0,0,0-1.388-.126V136.6h4.985v6.752a4.668,4.668,0,0,0,.631,2.713,2.1,2.1,0,0,0,1.893.947,2.865,2.865,0,0,0,1.136-.252,4.568,4.568,0,0,0,1.2-.694,5.026,5.026,0,0,0,.947-1.073,2.7,2.7,0,0,0,.379-1.388v-2.272a17.778,17.778,0,0,0-.126-2.145,2.682,2.682,0,0,0-.379-1.2,1.723,1.723,0,0,0-.757-.568,4.316,4.316,0,0,0-1.388-.126V136.6H208.4v6.5a17.778,17.778,0,0,0,.126,2.145,2.682,2.682,0,0,0,.379,1.2,1.723,1.723,0,0,0,.757.568,4.317,4.317,0,0,0,1.388.126v.757Z" transform="translate(-71.916 -96.278)"/>
          <path id="Path_30279" data-name="Path 30279" class="cls-1" d="M229.241,136.357a4.666,4.666,0,0,1,2.65-.757,3.746,3.746,0,0,1,3.218,1.451,6.2,6.2,0,0,1,1.073,3.723v2.209a16.928,16.928,0,0,0,.126,2.145,2.983,2.983,0,0,0,.379,1.2,1.723,1.723,0,0,0,.757.568,4.119,4.119,0,0,0,1.388.126v.757H231.2v-.757a8.037,8.037,0,0,0,1.388-.126,1.723,1.723,0,0,0,.757-.568,2.682,2.682,0,0,0,.379-1.2,17.772,17.772,0,0,0,.126-2.145v-2.019a4.643,4.643,0,0,0-.694-2.713,2.365,2.365,0,0,0-2.082-.947,3.8,3.8,0,0,0-2.587,1.073,3.1,3.1,0,0,0-1.2,2.461v2.272a21.031,21.031,0,0,0,.063,2.209,4.665,4.665,0,0,0,.316,1.2,1.27,1.27,0,0,0,.694.568,5.989,5.989,0,0,0,1.262.126v.757H222.3v-.757a8.036,8.036,0,0,0,1.388-.126,1.723,1.723,0,0,0,.757-.568,2.682,2.682,0,0,0,.379-1.2,17.772,17.772,0,0,0,.126-2.145v-1.767a17.774,17.774,0,0,0-.126-2.145,2.983,2.983,0,0,0-.379-1.2,1.723,1.723,0,0,0-.757-.568,4.317,4.317,0,0,0-1.388-.126v-.883l4.417-.883a8.424,8.424,0,0,1,.316,1.073c.126.568.189,1.01.252,1.388A7.46,7.46,0,0,1,229.241,136.357Z" transform="translate(-82.026 -95.909)"/>
          <path id="Path_30280" data-name="Path 30280" class="cls-1" d="M258.944,126.579a16.926,16.926,0,0,0-.126-2.145,2.983,2.983,0,0,0-.379-1.2,1.723,1.723,0,0,0-.757-.568,4.317,4.317,0,0,0-1.388-.126v-.757l4.985-.883v16.343a17.771,17.771,0,0,0,.126,2.145,2.682,2.682,0,0,0,.379,1.2,1.723,1.723,0,0,0,.757.568,4.118,4.118,0,0,0,1.388.126v.757l-4.417.883c-.063-.189-.126-.442-.252-.883a10.257,10.257,0,0,1-.252-1.2,5.792,5.792,0,0,1-1.767,1.514,4.738,4.738,0,0,1-2.335.568,5.379,5.379,0,0,1-2.209-.5,5.64,5.64,0,0,1-1.893-1.388,6.757,6.757,0,0,1-1.7-4.543,6.538,6.538,0,0,1,.442-2.461,6.071,6.071,0,0,1,1.262-2.019,5.271,5.271,0,0,1,1.893-1.388,5.379,5.379,0,0,1,2.209-.5,4.991,4.991,0,0,1,4.038,2.019Zm0,7.761a4.641,4.641,0,0,0-1.388-2.019,2.976,2.976,0,0,0-2.019-.757,3.162,3.162,0,0,0-2.84,1.388,7.307,7.307,0,0,0,0,7.194,3.162,3.162,0,0,0,2.84,1.388,3.094,3.094,0,0,0,2.019-.757,4.8,4.8,0,0,0,1.388-2.019Z" transform="translate(-91.915 -90.485)"/>
          <path id="Path_30281" data-name="Path 30281" class="cls-1" d="M283.465,148.12a2.092,2.092,0,0,1-2.272-2.019,9.614,9.614,0,0,1-2.145,1.578,4.553,4.553,0,0,1-2.019.5,2.95,2.95,0,0,1-2.145-.82,2.8,2.8,0,0,1-.883-2.145,3.339,3.339,0,0,1,.568-1.893,4.593,4.593,0,0,1,1.514-1.388,10.12,10.12,0,0,1,2.209-.947,25.458,25.458,0,0,1,2.776-.694,5.958,5.958,0,0,0-.442-2.84,2.189,2.189,0,0,0-3.029-.379,1.367,1.367,0,0,0-.631,1.2,1.508,1.508,0,0,1-.316.883,1.111,1.111,0,0,1-.82.379,1.017,1.017,0,0,1-.82-.379,1.1,1.1,0,0,1-.315-.883,2.425,2.425,0,0,1,1.262-2.019,5.761,5.761,0,0,1,2.966-.757,4.5,4.5,0,0,1,3.471,1.136,5.209,5.209,0,0,1,1.073,3.6v5.237q0,1.325.757,1.325a1.951,1.951,0,0,0,.5-.126,2.745,2.745,0,0,0,.442-.379l.442.631A2.55,2.55,0,0,1,283.465,148.12Zm-2.335-6.689c-3.092.757-4.606,1.893-4.606,3.407a1.719,1.719,0,0,0,.442,1.262,1.58,1.58,0,0,0,1.136.5,2.615,2.615,0,0,0,1.262-.379,13.955,13.955,0,0,0,1.767-1.325Z" transform="translate(-101.103 -95.872)"/>
          <path id="Path_30282" data-name="Path 30282" class="cls-1" d="M292.2,135.585v-.82a3.039,3.039,0,0,0,2.082-1.325,6.557,6.557,0,0,0,.883-2.84H296.3v3.849h2.9v1.2h-2.9v7c0,1.7.5,2.524,1.514,2.524a3.256,3.256,0,0,0,2.145-1.2l.568.568a4.759,4.759,0,0,1-1.7,1.451,3.617,3.617,0,0,1-1.83.568,2.907,2.907,0,0,1-2.272-.947,4.383,4.383,0,0,1-.82-2.966v-7h-1.7Z" transform="translate(-107.818 -94.064)"/>
          <path id="Path_30283" data-name="Path 30283" class="cls-1" d="M307,143.978v-.757a8.036,8.036,0,0,0,1.388-.126,1.723,1.723,0,0,0,.757-.568,2.682,2.682,0,0,0,.379-1.2,17.778,17.778,0,0,0,.126-2.145v-1.767a17.778,17.778,0,0,0-.126-2.145,2.983,2.983,0,0,0-.379-1.2,1.723,1.723,0,0,0-.757-.568,4.119,4.119,0,0,0-1.388-.126v-.694l4.985-.883v7.383a16.924,16.924,0,0,0,.126,2.145,2.983,2.983,0,0,0,.379,1.2,1.723,1.723,0,0,0,.757.568,4.118,4.118,0,0,0,1.388.126v.757H307Zm4.8-16.028a1.344,1.344,0,0,1-1.01.442,1.255,1.255,0,0,1-1.01-.442,1.521,1.521,0,0,1-.442-1.136,1.384,1.384,0,0,1,.442-1.073,1.344,1.344,0,0,1,1.01-.442,1.255,1.255,0,0,1,1.01.442,1.384,1.384,0,0,1,.442,1.073A1.35,1.35,0,0,1,311.8,127.95Z" transform="translate(-113.279 -92.109)"/>
          <path id="Path_30284" data-name="Path 30284" class="cls-1" d="M332.573,144.434a6.547,6.547,0,0,1-1.451,2.082,5.988,5.988,0,0,1-2.145,1.388,6.882,6.882,0,0,1-5.174,0,5.988,5.988,0,0,1-2.145-1.388,5.919,5.919,0,0,1-1.451-2.082,6.351,6.351,0,0,1-.5-2.461,5.983,5.983,0,0,1,1.956-4.48A6.975,6.975,0,0,1,323.8,136.1a6.882,6.882,0,0,1,5.174,0,5.988,5.988,0,0,1,2.145,1.388,6.593,6.593,0,0,1,1.451,2.019,6.251,6.251,0,0,1,0,4.922Zm-3.218-6.058a3.459,3.459,0,0,0-2.966-1.388,3.356,3.356,0,0,0-2.966,1.451,6.911,6.911,0,0,0,0,7.194,3.509,3.509,0,0,0,2.966,1.451,3.313,3.313,0,0,0,2.966-1.388,7.138,7.138,0,0,0,0-7.32Z" transform="translate(-117.966 -95.909)"/>
          <path id="Path_30285" data-name="Path 30285" class="cls-1" d="M349.241,136.357a4.666,4.666,0,0,1,2.65-.757,3.746,3.746,0,0,1,3.218,1.451,6.2,6.2,0,0,1,1.073,3.723v2.209a16.925,16.925,0,0,0,.126,2.145,2.983,2.983,0,0,0,.379,1.2,1.723,1.723,0,0,0,.757.568,4.119,4.119,0,0,0,1.388.126v.757H351.2v-.757a8.037,8.037,0,0,0,1.388-.126,1.723,1.723,0,0,0,.757-.568,2.682,2.682,0,0,0,.379-1.2,17.771,17.771,0,0,0,.126-2.145v-2.019a4.643,4.643,0,0,0-.694-2.713,2.365,2.365,0,0,0-2.082-.947,3.8,3.8,0,0,0-2.587,1.073,3.1,3.1,0,0,0-1.2,2.461v2.272a21.031,21.031,0,0,0,.063,2.209,4.666,4.666,0,0,0,.315,1.2,1.27,1.27,0,0,0,.694.568,5.989,5.989,0,0,0,1.262.126v.757H342.3v-.757a8.036,8.036,0,0,0,1.388-.126,1.723,1.723,0,0,0,.757-.568,2.682,2.682,0,0,0,.379-1.2,17.771,17.771,0,0,0,.126-2.145v-1.767a17.771,17.771,0,0,0-.126-2.145,2.983,2.983,0,0,0-.379-1.2,1.723,1.723,0,0,0-.757-.568,4.119,4.119,0,0,0-1.388-.126v-.883l4.417-.883a8.426,8.426,0,0,1,.316,1.073c.126.568.189,1.01.252,1.388A10.256,10.256,0,0,1,349.241,136.357Z" transform="translate(-126.305 -95.909)"/>
        </g>
      </g>
    </g>
  </g>
</svg>
