<svg xmlns="http://www.w3.org/2000/svg" viewBox="-1584 9398 182.547 58.298">
  <defs>
    <style>
      .cls-1 {
        fill: #00afa8;
      }
    </style>
  </defs>
  <g id="Group_5439" data-name="Group 5439" transform="translate(-1584 9398)">
    <g id="Group_5437" data-name="Group 5437" transform="translate(167.948 0.051)">
      <path id="Path_30221" data-name="Path 30221" class="cls-1" d="M331.3.2h2.433V.606h-1.014V4.357h-.406V.606H331.3Z" transform="translate(-331.3 -0.149)"/>
      <path id="Path_30222" data-name="Path 30222" class="cls-1" d="M339.484.2h.76V4.408h-.406V.352h0a3.308,3.308,0,0,0-.1.558l-.811,3.4h-.507L337.608.859c-.051-.152-.051-.3-.1-.507h0v4H337V.2h.76l.76,3.244c.051.2.051.355.1.608h0c.051-.2.051-.406.1-.608Z" transform="translate(-334.11 -0.149)"/>
      <path id="Path_30223" data-name="Path 30223" class="cls-1" d="M344,4.509,345.267.2h.3L344.3,4.509Z" transform="translate(-337.562 -0.149)"/>
      <path id="Path_30224" data-name="Path 30224" class="cls-1" d="M350.283.2h.76V4.408h-.406V.352h0a3.308,3.308,0,0,0-.1.558l-.811,3.4h-.507L348.407.859c-.051-.152-.051-.3-.1-.507h0v4H347.9V.2h.76l.76,3.244c.051.2.051.355.1.608h0a2.545,2.545,0,0,1,.1-.608Z" transform="translate(-339.485 -0.149)"/>
      <path id="Path_30225" data-name="Path 30225" class="cls-1" d="M357.376,1.418c0-.507-.152-.912-.71-.912-.76,0-.76,1.166-.76,1.724s-.051,1.825.76,1.825c.507,0,.608-.456.659-.912a.643.643,0,0,1,.051-.3h.406v.253a1.856,1.856,0,0,1-.2.912.939.939,0,0,1-.862.456c-1.166,0-1.217-1.267-1.217-2.231S355.652.1,356.717.1a1.18,1.18,0,0,1,1.115,1.318h-.456Z" transform="translate(-343.232 -0.1)"/>
    </g>
    <g id="Group_5438" data-name="Group 5438">
      <path id="Path_30226" data-name="Path 30226" class="cls-1" d="M36.094,15.208C36.094,5.982,30.213,0,19.517,0H0V51H10.24V31.785h5.171c4.613,7.3,9.885,15.208,14.853,22.913a8.126,8.126,0,0,0,6.945,3.6h7.5L26.158,30.518C33.407,27.831,36.094,23.218,36.094,15.208ZM19.517,23.167H10.24V8.618h9.277c3.3,0,5.982,1.977,5.982,7.3C25.5,21.19,22.812,23.167,19.517,23.167Z"/>
      <path id="Path_30227" data-name="Path 30227" class="cls-1" d="M145.759,28.8h-6.539l11.812,17.54L137.8,65.2h6.894a7.917,7.917,0,0,0,6.894-3.6l4.917-6.945c3.042,4.41,3.6,5.424,4.664,6.945a7.917,7.917,0,0,0,6.894,3.6H174.6s-21.7-32.393-21.95-32.849A8.05,8.05,0,0,0,145.759,28.8Z" transform="translate(-67.944 -14.2)"/>
      <path id="Path_30228" data-name="Path 30228" class="cls-1" d="M283.85,0H280.2V51h9.277V5.221A5.313,5.313,0,0,0,283.85,0Z" transform="translate(-138.157)"/>
      <path id="Path_30229" data-name="Path 30229" class="cls-1" d="M311.25.2H307.6V51.147h9.277V5.421C316.877,2.278,314.342.2,311.25.2Z" transform="translate(-151.667 -0.099)"/>
      <path id="Path_30230" data-name="Path 30230" class="cls-1" d="M98.622,56.6H92.995c-5.019,0-7.908-1.977-7.908-7.249h23.167s.152-2.788.152-4.613c-.152-11.2-6.134-17.236-16.07-17.236C81.741,27.5,75.1,33.482,75.1,46.054s5.627,18.554,17.236,18.554h11.913V61.921A5.363,5.363,0,0,0,98.622,56.6Zm-6.337-21.19c4.562,0,6.337,1.926,6.641,6.641H85.036C85.34,37.335,87.723,35.408,92.285,35.408Z" transform="translate(-37.029 -13.559)"/>
      <path id="Path_30231" data-name="Path 30231" class="cls-1" d="M224.859,28.8H212.946v2.636a5.394,5.394,0,0,0,5.627,5.323H224.2c5.019,0,7.249,1.318,7.249,5.931h-9.936c-7.3,0-11.913,3.346-11.913,10.95,0,7.655,4.613,11.609,11.913,11.609h19.213V44.718C240.726,33.464,236.113,28.8,224.859,28.8ZM231.5,57.29h-8.618c-1.977,0-3.954-.608-3.954-3.65,0-2.94,1.977-3.65,3.954-3.65H231.5Z" transform="translate(-103.346 -14.2)"/>
      <path id="Path_30232" data-name="Path 30232" class="cls-1" d="M182.7,40.864h6.59a5.231,5.231,0,0,0,3.8-1.571,5.318,5.318,0,0,0,1.572-3.8V28.9h-6.59a5.231,5.231,0,0,0-3.8,1.571,5.318,5.318,0,0,0-1.572,3.8Z" transform="translate(-90.083 -14.25)"/>
    </g>
  </g>
</svg>
